<svg xmlns="http://www.w3.org/2000/svg" xmlns:xlink="http://www.w3.org/1999/xlink" contentStyleType="text/css" height="656px" preserveAspectRatio="none" style="width:1068px;height:656px;background:#FFFFFF;" version="1.1" viewBox="0 0 1068 656" width="1068px" zoomAndPan="magnify"><defs/><g><!--cluster main--><g id="cluster_main"><path d="M8.5,6 L48.3008,6 A3.75,3.75 0 0 1 50.8008,8.5 L57.8008,28.2969 L420.5,28.2969 A2.5,2.5 0 0 1 423,30.7969 L423,363.5 A2.5,2.5 0 0 1 420.5,366 L8.5,366 A2.5,2.5 0 0 1 6,363.5 L6,8.5 A2.5,2.5 0 0 1 8.5,6 " fill="none" style="stroke:#000000;stroke-width:1.5;"/><line style="stroke:#000000;stroke-width:1.5;" x1="6" x2="57.8008" y1="28.2969" y2="28.2969"/><text fill="#000000" font-family="sans-serif" font-size="14" font-weight="bold" lengthAdjust="spacing" textLength="38.8008" x="10" y="20.9951">main</text></g><!--cluster services--><g id="cluster_services"><path d="M449.5,269 L515.2842,269 A3.75,3.75 0 0 1 517.7842,271.5 L524.7842,291.2969 L1050.5,291.2969 A2.5,2.5 0 0 1 1053,293.7969 L1053,500.5 A2.5,2.5 0 0 1 1050.5,503 L449.5,503 A2.5,2.5 0 0 1 447,500.5 L447,271.5 A2.5,2.5 0 0 1 449.5,269 " fill="none" style="stroke:#000000;stroke-width:1.5;"/><line style="stroke:#000000;stroke-width:1.5;" x1="447" x2="524.7842" y1="291.2969" y2="291.2969"/><text fill="#000000" font-family="sans-serif" font-size="14" font-weight="bold" lengthAdjust="spacing" textLength="64.7842" x="451" y="283.9951">services</text></g><!--cluster model--><g id="cluster_model"><path d="M467.5,552 L517.0215,552 A3.75,3.75 0 0 1 519.5215,554.5 L526.5215,574.2969 L622.5,574.2969 A2.5,2.5 0 0 1 625,576.7969 L625,646.5 A2.5,2.5 0 0 1 622.5,649 L467.5,649 A2.5,2.5 0 0 1 465,646.5 L465,554.5 A2.5,2.5 0 0 1 467.5,552 " fill="none" style="stroke:#000000;stroke-width:1.5;"/><line style="stroke:#000000;stroke-width:1.5;" x1="465" x2="526.5215" y1="574.2969" y2="574.2969"/><text fill="#000000" font-family="sans-serif" font-size="14" font-weight="bold" lengthAdjust="spacing" textLength="48.5215" x="469" y="566.9951">model</text></g><!--cluster render--><g id="cluster_render"><path d="M667.5,552 L721.2871,552 A3.75,3.75 0 0 1 723.7871,554.5 L730.7871,574.2969 L856.5,574.2969 A2.5,2.5 0 0 1 859,576.7969 L859,646.5 A2.5,2.5 0 0 1 856.5,649 L667.5,649 A2.5,2.5 0 0 1 665,646.5 L665,554.5 A2.5,2.5 0 0 1 667.5,552 " fill="none" style="stroke:#000000;stroke-width:1.5;"/><line style="stroke:#000000;stroke-width:1.5;" x1="665" x2="730.7871" y1="574.2969" y2="574.2969"/><text fill="#000000" font-family="sans-serif" font-size="14" font-weight="bold" lengthAdjust="spacing" textLength="52.7871" x="669" y="566.9951">render</text></g><!--cluster compiler--><g id="cluster_compiler"><path d="M901.5,552 L971.0234,552 A3.75,3.75 0 0 1 973.5234,554.5 L980.5234,574.2969 L1032.5,574.2969 A2.5,2.5 0 0 1 1035,576.7969 L1035,646.5 A2.5,2.5 0 0 1 1032.5,649 L901.5,649 A2.5,2.5 0 0 1 899,646.5 L899,554.5 A2.5,2.5 0 0 1 901.5,552 " fill="none" style="stroke:#000000;stroke-width:1.5;"/><line style="stroke:#000000;stroke-width:1.5;" x1="899" x2="980.5234" y1="574.2969" y2="574.2969"/><text fill="#000000" font-family="sans-serif" font-size="14" font-weight="bold" lengthAdjust="spacing" textLength="68.5234" x="903" y="566.9951">compiler</text></g><!--entity Main--><g id="elem_Main"><rect fill="#F1F1F1" height="46.2969" rx="2.5" ry="2.5" style="stroke:#181818;stroke-width:0.5;" width="73.4209" x="157.5" y="41"/><rect fill="#F1F1F1" height="10" style="stroke:#181818;stroke-width:0.5;" width="15" x="210.9209" y="46"/><rect fill="#F1F1F1" height="2" style="stroke:#181818;stroke-width:0.5;" width="4" x="208.9209" y="48"/><rect fill="#F1F1F1" height="2" style="stroke:#181818;stroke-width:0.5;" width="4" x="208.9209" y="52"/><text fill="#000000" font-family="sans-serif" font-size="14" lengthAdjust="spacing" textLength="33.4209" x="172.5" y="73.9951">Main</text></g><!--entity ParseCliInterface--><g id="elem_ParseCliInterface"><ellipse cx="89" cy="177" fill="#F1F1F1" rx="8" ry="8" style="stroke:#181818;stroke-width:0.5;"/><text fill="#000000" font-family="sans-serif" font-size="14" lengthAdjust="spacing" textLength="118.918" x="29.541" y="206.9951">ParseCliInterface</text></g><!--entity BinaryModelServiceInterface--><g id="elem_BinaryModelServiceInterface"><ellipse cx="299" cy="177" fill="#F1F1F1" rx="8" ry="8" style="stroke:#181818;stroke-width:0.5;"/><text fill="#000000" font-family="sans-serif" font-size="14" lengthAdjust="spacing" textLength="201.4414" x="198.2793" y="206.9951">BinaryModelServiceInterface</text></g><!--entity ParseCli--><g id="elem_ParseCli"><rect fill="#F1F1F1" height="46.2969" rx="2.5" ry="2.5" style="stroke:#181818;stroke-width:0.5;" width="96.2393" x="41" y="304"/><rect fill="#F1F1F1" height="10" style="stroke:#181818;stroke-width:0.5;" width="15" x="117.2393" y="309"/><rect fill="#F1F1F1" height="2" style="stroke:#181818;stroke-width:0.5;" width="4" x="115.2393" y="311"/><rect fill="#F1F1F1" height="2" style="stroke:#181818;stroke-width:0.5;" width="4" x="115.2393" y="315"/><text fill="#000000" font-family="sans-serif" font-size="14" lengthAdjust="spacing" textLength="56.2393" x="56" y="336.9951">ParseCli</text></g><!--entity BinaryModelService--><g id="elem_BinaryModelService"><rect fill="#F1F1F1" height="46.2969" rx="2.5" ry="2.5" style="stroke:#181818;stroke-width:0.5;" width="178.7627" x="502.5" y="304"/><rect fill="#F1F1F1" height="10" style="stroke:#181818;stroke-width:0.5;" width="15" x="661.2627" y="309"/><rect fill="#F1F1F1" height="2" style="stroke:#181818;stroke-width:0.5;" width="4" x="659.2627" y="311"/><rect fill="#F1F1F1" height="2" style="stroke:#181818;stroke-width:0.5;" width="4" x="659.2627" y="315"/><text fill="#000000" font-family="sans-serif" font-size="14" lengthAdjust="spacing" textLength="138.7627" x="517.5" y="336.9951">BinaryModelService</text></g><!--entity BinaryModelInterface--><g id="elem_BinaryModelInterface"><ellipse cx="545" cy="458" fill="#F1F1F1" rx="8" ry="8" style="stroke:#181818;stroke-width:0.5;"/><text fill="#000000" font-family="sans-serif" font-size="14" lengthAdjust="spacing" textLength="149.7002" x="470.1499" y="487.9951">BinaryModelInterface</text></g><!--entity TemplateContextInterface--><g id="elem_TemplateContextInterface"><ellipse cx="762" cy="458" fill="#F1F1F1" rx="8" ry="8" style="stroke:#181818;stroke-width:0.5;"/><text fill="#000000" font-family="sans-serif" font-size="14" lengthAdjust="spacing" textLength="184.0303" x="669.9849" y="487.9951">TemplateContextInterface</text></g><!--entity CompilerInterface--><g id="elem_CompilerInterface"><ellipse cx="967" cy="458" fill="#F1F1F1" rx="8" ry="8" style="stroke:#181818;stroke-width:0.5;"/><text fill="#000000" font-family="sans-serif" font-size="14" lengthAdjust="spacing" textLength="125.6924" x="904.1538" y="487.9951">CompilerInterface</text></g><!--entity BinaryModel--><g id="elem_BinaryModel"><rect fill="#F1F1F1" height="46.2969" rx="2.5" ry="2.5" style="stroke:#181818;stroke-width:0.5;" width="127.0215" x="481.5" y="587"/><rect fill="#F1F1F1" height="10" style="stroke:#181818;stroke-width:0.5;" width="15" x="588.5215" y="592"/><rect fill="#F1F1F1" height="2" style="stroke:#181818;stroke-width:0.5;" width="4" x="586.5215" y="594"/><rect fill="#F1F1F1" height="2" style="stroke:#181818;stroke-width:0.5;" width="4" x="586.5215" y="598"/><text fill="#000000" font-family="sans-serif" font-size="14" lengthAdjust="spacing" textLength="87.0215" x="496.5" y="619.9951">BinaryModel</text></g><!--entity TemplateContext--><g id="elem_TemplateContext"><rect fill="#F1F1F1" height="46.2969" rx="2.5" ry="2.5" style="stroke:#181818;stroke-width:0.5;" width="161.3516" x="681.5" y="587"/><rect fill="#F1F1F1" height="10" style="stroke:#181818;stroke-width:0.5;" width="15" x="822.8516" y="592"/><rect fill="#F1F1F1" height="2" style="stroke:#181818;stroke-width:0.5;" width="4" x="820.8516" y="594"/><rect fill="#F1F1F1" height="2" style="stroke:#181818;stroke-width:0.5;" width="4" x="820.8516" y="598"/><text fill="#000000" font-family="sans-serif" font-size="14" lengthAdjust="spacing" textLength="121.3516" x="696.5" y="619.9951">TemplateContext</text></g><!--entity Compiler--><g id="elem_Compiler"><rect fill="#F1F1F1" height="46.2969" rx="2.5" ry="2.5" style="stroke:#181818;stroke-width:0.5;" width="103.0137" x="915.5" y="587"/><rect fill="#F1F1F1" height="10" style="stroke:#181818;stroke-width:0.5;" width="15" x="998.5137" y="592"/><rect fill="#F1F1F1" height="2" style="stroke:#181818;stroke-width:0.5;" width="4" x="996.5137" y="594"/><rect fill="#F1F1F1" height="2" style="stroke:#181818;stroke-width:0.5;" width="4" x="996.5137" y="598"/><text fill="#000000" font-family="sans-serif" font-size="14" lengthAdjust="spacing" textLength="63.0137" x="930.5" y="619.9951">Compiler</text></g><!--link Main to ParseCliInterface--><g id="link_Main_ParseCliInterface"><path d="M173,87.2 C149.42,112.12 116.5124,146.9105 100.6924,163.6405 " fill="none" id="Main-to-ParseCliInterface" style="stroke:#181818;stroke-width:1.0;stroke-dasharray:7.0,7.0;"/><polygon fill="#181818" points="96.57,168,105.66,164.209,100.0053,164.367,99.8473,158.7124,96.57,168" style="stroke:#181818;stroke-width:1.0;"/></g><!--link Main to BinaryModelServiceInterface--><g id="link_Main_BinaryModelServiceInterface"><path d="M215,87.2 C238.58,112.12 271.4876,146.9105 287.3076,163.6405 " fill="none" id="Main-to-BinaryModelServiceInterface" style="stroke:#181818;stroke-width:1.0;stroke-dasharray:7.0,7.0;"/><polygon fill="#181818" points="291.43,168,288.1527,158.7124,287.9947,164.367,282.34,164.209,291.43,168" style="stroke:#181818;stroke-width:1.0;"/></g><!--reverse link ParseCliInterface to ParseCli--><g id="link_ParseCliInterface_ParseCli"><path d="M89,196.38 C89,218.76 89,270.49 89,303.88 " fill="none" id="ParseCliInterface-backto-ParseCli" style="stroke:#181818;stroke-width:1.0;"/><path d="M80.5428,189.4582 A9,9 0 0 0 97.4572 189.4582" fill="none" style="stroke:#181818;stroke-width:1.5;"/><text fill="#000000" font-family="sans-serif" font-size="13" lengthAdjust="spacing" textLength="92.8154" x="90" y="249.0669">&#171;implements&#187;</text></g><!--reverse link BinaryModelServiceInterface to BinaryModelService--><g id="link_BinaryModelServiceInterface_BinaryModelService"><path d="M317.0153,187.0998 C352.9953,205.2798 477.97,268.4 548.27,303.91 " fill="none" id="BinaryModelServiceInterface-backto-BinaryModelService" style="stroke:#181818;stroke-width:1.0;"/><path d="M307.0233,191.5266 A9,9 0 0 0 314.6514 176.4298" fill="none" style="stroke:#181818;stroke-width:1.5;"/><text fill="#000000" font-family="sans-serif" font-size="13" lengthAdjust="spacing" textLength="92.8154" x="446" y="249.0669">&#171;implements&#187;</text></g><!--link BinaryModelService to BinaryModelInterface--><g id="link_BinaryModelService_BinaryModelInterface"><path d="M583.92,350.18 C573.26,379.42 557.0965,423.8234 549.9965,443.2834 " fill="none" id="BinaryModelService-to-BinaryModelInterface" style="stroke:#181818;stroke-width:1.0;stroke-dasharray:7.0,7.0;"/><polygon fill="#181818" points="547.94,448.92,554.7825,441.8362,549.6538,444.2229,547.2671,439.0942,547.94,448.92" style="stroke:#181818;stroke-width:1.0;"/><text fill="#000000" font-family="sans-serif" font-size="13" lengthAdjust="spacing" textLength="45.6904" x="572" y="395.0669">&#171;uses&#187;</text></g><!--link BinaryModelService to TemplateContextInterface--><g id="link_BinaryModelService_TemplateContextInterface"><path d="M621.22,350.18 C660.53,380 723.5304,427.8129 748.0404,446.4129 " fill="none" id="BinaryModelService-to-TemplateContextInterface" style="stroke:#181818;stroke-width:1.0;stroke-dasharray:7.0,7.0;"/><polygon fill="#181818" points="752.82,450.04,748.0687,441.413,748.837,447.0174,743.2326,447.7857,752.82,450.04" style="stroke:#181818;stroke-width:1.0;"/><text fill="#000000" font-family="sans-serif" font-size="13" lengthAdjust="spacing" textLength="45.6904" x="683" y="395.0669">&#171;uses&#187;</text></g><!--link BinaryModelService to CompilerInterface--><g id="link_BinaryModelService_CompilerInterface"><path d="M656.04,350.03 C749.55,382.2 911.1263,437.7783 952.0863,451.8683 " fill="none" id="BinaryModelService-to-CompilerInterface" style="stroke:#181818;stroke-width:1.0;stroke-dasharray:7.0,7.0;"/><polygon fill="#181818" points="957.76,453.82,950.5506,447.11,953.0319,452.1936,947.9483,454.6749,957.76,453.82" style="stroke:#181818;stroke-width:1.0;"/><text fill="#000000" font-family="sans-serif" font-size="13" lengthAdjust="spacing" textLength="45.6904" x="791" y="395.0669">&#171;uses&#187;</text></g><!--reverse link BinaryModelInterface to BinaryModel--><g id="link_BinaryModelInterface_BinaryModel"><path d="M545,477.06 C545,499.46 545,552.99 545,586.95 " fill="none" id="BinaryModelInterface-backto-BinaryModel" style="stroke:#181818;stroke-width:1.0;"/><path d="M536.5428,470.1382 A9,9 0 0 0 553.4572 470.1382" fill="none" style="stroke:#181818;stroke-width:1.5;"/><text fill="#000000" font-family="sans-serif" font-size="13" lengthAdjust="spacing" textLength="92.8154" x="546" y="532.0669">&#171;implements&#187;</text></g><!--reverse link TemplateContextInterface to TemplateContext--><g id="link_TemplateContextInterface_TemplateContext"><path d="M762,477.06 C762,499.46 762,552.99 762,586.95 " fill="none" id="TemplateContextInterface-backto-TemplateContext" style="stroke:#181818;stroke-width:1.0;"/><path d="M753.5428,470.1382 A9,9 0 0 0 770.4572 470.1382" fill="none" style="stroke:#181818;stroke-width:1.5;"/><text fill="#000000" font-family="sans-serif" font-size="13" lengthAdjust="spacing" textLength="92.8154" x="763" y="532.0669">&#171;implements&#187;</text></g><!--reverse link CompilerInterface to Compiler--><g id="link_CompilerInterface_Compiler"><path d="M967,477.06 C967,499.46 967,552.99 967,586.95 " fill="none" id="CompilerInterface-backto-Compiler" style="stroke:#181818;stroke-width:1.0;"/><path d="M958.5428,470.1382 A9,9 0 0 0 975.4572 470.1382" fill="none" style="stroke:#181818;stroke-width:1.5;"/><text fill="#000000" font-family="sans-serif" font-size="13" lengthAdjust="spacing" textLength="92.8154" x="968" y="532.0669">&#171;implements&#187;</text></g><!--SRC=[bP313e8m38RlF4Kz6G_u08Pma9C74nEz4GuDLBEmZMKRHc9yTs5eG42CjwRj__NllrmeZHU1mB4gIWl4SyzJcEPu8H389DmzW7XVLmciro4SK1kAEDj9I_gCANsEjqoYhlP5Hln8-ifIwY-EnB3oVOZVxGHW0q70XE8aI5eJXjwZisDQe76MPWwrqF52CgR3zDxWauxS04f3FwGdgc-WfQYeXJVxhpmgX6ASzAIkbuTebCCmlgUGp8QhIMQa7UshVKSSJEUfwUiLnnt_vO3lzYJf2G00]--></g></svg>
