<svg xmlns="http://www.w3.org/2000/svg" xmlns:xlink="http://www.w3.org/1999/xlink" version="1.1" data-diagram-type="ACTIVITY" style="width:1030px;height:1206px;background:#FFFFFF;" width="1030px" height="1206px" viewBox="0 0 1030 1206" zoomAndPan="magnify" preserveAspectRatio="none" contentStyleType="text/css"><?plantuml 1.2026.8?><defs/><g font-family="sans-serif" lengthAdjust="spacing"><g class="title" data-source-line="1"><text x="414.203" y="32.995" fill="#000" font-size="14" textLength="200.327" font-weight="700">compiler embed injection</text></g><ellipse cx="330.471" cy="62.297" rx="10" ry="10" fill="#222" style="stroke:#222;stroke-width:1;"/><rect x="294.356" y="92.297" width="72.23" height="33.969" fill="#F1F1F1" style="stroke:#181818;stroke-width:0.5;" rx="12.5" ry="12.5"/><text x="304.356" y="113.436" fill="#000" font-size="12" textLength="52.23">compiler</text><rect x="221.477" y="146.266" width="217.988" height="33.969" fill="#00FF7F" style="stroke:#181818;stroke-width:0.5;" rx="12.5" ry="12.5"/><text x="231.477" y="167.404" fill="#000" font-size="12" textLength="197.988">Compiler::Embed::inject fromFile</text><rect x="224" y="200.234" width="212.943" height="33.969" fill="#00FF7F" style="stroke:#181818;stroke-width:0.5;" rx="12.5" ry="12.5"/><text x="234" y="221.373" fill="#000" font-size="12" textLength="192.943">Compiler::Embed::filter fromFile</text><rect x="184.09" y="299.914" width="377.116" height="184.586" fill="none" style="stroke:#000;stroke-width:1.5;"/><path d="M373.479,299.914 L373.479,309.21 L363.479,319.21 L184.09,319.21" style="stroke:#000;stroke-width:1.5;" fill="none"/><text x="187.09" y="313.909" fill="#000" font-size="14" textLength="179.389">Compiler::Embed::embed</text><rect x="194.09" y="336.21" width="272.762" height="75.875" fill="#00FF7F" style="stroke:#181818;stroke-width:0.5;" rx="12.5" ry="12.5"/><text x="204.09" y="357.349" fill="#000" font-size="12" textLength="252.762">Compiler::Embed::parse $embedDirective</text><text x="204.09" y="371.318" fill="#000" font-size="12" textLength="7.629">  </text><text x="211.719" y="371.318" fill="#000" font-size="12" textLength="230.121" text-decoration="wavy underline">uses Compiler::Embed::assertAsName</text><text x="204.09" y="385.287" fill="#000" font-size="12" textLength="7.629">  </text><text x="211.719" y="385.287" fill="#000" font-size="12" textLength="236.092" text-decoration="wavy underline">uses Compiler::Embed::assertResource</text><text x="204.09" y="399.255" fill="#000" font-size="12"> </text><polygon points="241.821,436.789,419.121,436.789,431.121,448.789,419.121,460.789,241.821,460.789,229.821,448.789,241.821,436.789" fill="#AAA" style="stroke:#181818;stroke-width:0.5;stroke-linejoin:miter;stroke-miterlimit:10;"/><text x="334.471" y="471" fill="#008000" font-size="11" textLength="77.865">valid directive</text><text x="241.821" y="452.597" fill="#000" font-size="11" textLength="177.3">embed directive can be parsed?</text><text x="431.121" y="433.39" fill="#F00" font-size="11" textLength="78.085">invalid embed</text><text x="431.121" y="446.195" fill="#F00" font-size="11" textLength="48.023">directive</text><ellipse cx="529.206" cy="448.789" rx="10" ry="10" fill="none" style="stroke:#F00;stroke-width:1.5;"/><line x1="523.019" y1="442.602" x2="535.393" y2="454.976" style="stroke:#F00;stroke-width:2.5;"/><line x1="535.393" y1="442.602" x2="523.019" y2="454.976" style="stroke:#F00;stroke-width:2.5;"/><polygon points="244.961,504.5,415.982,504.5,427.982,516.5,415.982,528.5,244.961,528.5,232.961,516.5,244.961,504.5" fill="#AAA" style="stroke:#181818;stroke-width:0.5;stroke-linejoin:miter;stroke-miterlimit:10;"/><text x="244.961" y="520.308" fill="#000" font-size="11" textLength="171.021">embed name already injected?</text><text x="213.953" y="513.905" fill="#000" font-size="11" textLength="19.008">yes</text><text x="427.982" y="513.905" fill="#008000" font-size="11" textLength="177.735">embed resource can be injected</text><rect x="43" y="538.5" width="90.576" height="33.969" fill="#F1F1F1" style="stroke:#181818;stroke-width:0.5;" rx="12.5" ry="12.5"/><text x="53" y="559.638" fill="#000" font-size="12" textLength="70.576">display skip</text><rect x="515.311" y="586.902" width="114.688" height="33.969" fill="#F1F1F1" style="stroke:#181818;stroke-width:0.5;" rx="12.5" ry="12.5"/><text x="525.311" y="608.041" fill="#000" font-size="12" textLength="94.688">display warning</text><polygon points="475.846,538.5,669.463,538.5,681.463,550.5,669.463,562.5,475.846,562.5,463.846,550.5,475.846,538.5" fill="#AAA" style="stroke:#181818;stroke-width:0.5;stroke-linejoin:miter;stroke-miterlimit:10;"/><text x="576.655" y="572.71" fill="#000" font-size="11" textLength="19.008">yes</text><text x="475.846" y="554.308" fill="#000" font-size="11" textLength="193.617">embed resources already injected?</text><polygon points="572.655,640.871,584.655,652.871,572.655,664.871,560.655,652.871,572.655,640.871" fill="#AAA" style="stroke:#181818;stroke-width:0.5;stroke-linejoin:miter;stroke-miterlimit:10;"/><rect x="153.576" y="674.871" width="828.157" height="309.422" fill="#D3D3D3" style="stroke:#000;stroke-width:1.5;"/><path d="M342.965,674.871 L342.965,684.167 L332.965,694.167 L153.576,694.167" style="stroke:#000;stroke-width:1.5;" fill="none"/><text x="156.576" y="688.866" fill="#000" font-size="14" textLength="179.389">Compiler::Embed::embed</text><rect x="417.02" y="711.167" width="311.27" height="33.969" fill="#00FF7F" style="stroke:#181818;stroke-width:0.5;" rx="12.5" ry="12.5"/><text x="427.02" y="732.306" fill="#000" font-size="12" textLength="153.762">Compiler::Embed::embed</text><text x="584.596" y="732.306" fill="#000" font-size="12" textLength="67.506" font-weight="700">$resource</text><text x="652.102" y="732.306" fill="#000" font-size="12"> </text><text x="655.916" y="732.306" fill="#000" font-size="12" textLength="62.373" font-weight="700">$asName</text><polygon points="531.67,765.136,613.639,765.136,625.639,777.136,613.639,789.136,531.67,789.136,519.67,777.136,531.67,765.136" fill="#AAA" style="stroke:#181818;stroke-width:0.5;stroke-linejoin:miter;stroke-miterlimit:10;"/><text x="531.67" y="780.944" fill="#000" font-size="11" textLength="81.968">resource type?</text><rect x="163.576" y="837.55" width="194.715" height="33.969" fill="#00FF7F" style="stroke:#181818;stroke-width:0.5;" rx="12.5" ry="12.5"/><text x="173.576" y="858.689" fill="#000" font-size="12" textLength="174.715">Compiler::Embed::embedFile</text><rect x="378.757" y="837.55" width="191.27" height="33.969" fill="#00FF7F" style="stroke:#181818;stroke-width:0.5;" rx="12.5" ry="12.5"/><text x="388.757" y="858.689" fill="#000" font-size="12" textLength="171.27">Compiler::Embed::embedDir</text><rect x="624.915" y="850.355" width="292.76" height="33.969" fill="#00FF7F" style="stroke:#181818;stroke-width:0.5;" rx="12.5" ry="12.5"/><text x="634.915" y="871.494" fill="#000" font-size="12" textLength="272.76">Compiler::Embed::embedFrameworkFunction</text><rect x="670.311" y="904.324" width="201.969" height="33.969" fill="#00FF7F" style="stroke:#181818;stroke-width:0.5;" rx="12.5" ry="12.5"/><text x="680.311" y="925.462" fill="#000" font-size="12" textLength="181.969">Compiler::Embed::bin/compile</text><ellipse cx="937.675" cy="847.55" rx="10" ry="10" fill="none" style="stroke:#F00;stroke-width:1.5;"/><line x1="931.488" y1="841.363" x2="943.862" y2="853.737" style="stroke:#F00;stroke-width:2.5;"/><line x1="943.862" y1="841.363" x2="931.488" y2="853.737" style="stroke:#F00;stroke-width:2.5;"/><polygon points="572.655,948.292,572.655,948.292,584.655,960.292,572.655,972.292,572.655,972.292,560.655,960.292,572.655,948.292" fill="#AAA" style="stroke:#181818;stroke-width:0.5;stroke-linejoin:miter;stroke-miterlimit:10;"/><polygon points="478.625,1008.996,666.684,1008.996,678.684,1020.996,666.684,1032.996,478.625,1032.996,466.625,1020.996,478.625,1008.996" fill="#AAA" style="stroke:#181818;stroke-width:0.5;stroke-linejoin:miter;stroke-miterlimit:10;"/><text x="478.625" y="1024.804" fill="#000" font-size="11" textLength="188.058">embed resource injection failure ?</text><text x="678.684" y="1005.597" fill="#F00" font-size="11" textLength="69.62">display error</text><text x="678.684" y="1018.402" fill="#F00" font-size="11" textLength="68.755">and return 2</text><ellipse cx="768.304" cy="1020.996" rx="10" ry="10" fill="none" style="stroke:#F00;stroke-width:1.5;"/><line x1="762.117" y1="1014.809" x2="774.491" y2="1027.183" style="stroke:#F00;stroke-width:2.5;"/><line x1="774.491" y1="1014.809" x2="762.117" y2="1027.183" style="stroke:#F00;stroke-width:2.5;"/><polygon points="330.471,1042.996,342.471,1054.996,330.471,1066.996,318.471,1054.996,330.471,1042.996" fill="#AAA" style="stroke:#181818;stroke-width:0.5;stroke-linejoin:miter;stroke-miterlimit:10;"/><polygon points="283.689,254.203,377.254,254.203,389.254,266.203,377.254,278.203,283.689,278.203,271.689,266.203,283.689,254.203" fill="#AAA" style="stroke:#181818;stroke-width:0.5;stroke-linejoin:miter;stroke-miterlimit:10;"/><text x="334.471" y="288.414" fill="#008000" font-size="11" textLength="73.24">embed found</text><text x="283.689" y="270.011" fill="#000" font-size="11" textLength="93.564">embedDirective?</text><text x="71.976" y="263.609" fill="#000" font-size="11" textLength="199.713">no more embed directive to process</text><rect x="280.616" y="1110.09" width="99.711" height="33.969" fill="#F1F1F1" style="stroke:#181818;stroke-width:0.5;" rx="12.5" ry="12.5"/><text x="290.616" y="1131.229" fill="#000" font-size="12" textLength="79.711">Output result</text><ellipse cx="330.471" cy="1175.059" rx="11" ry="11" fill="none" style="stroke:#222;stroke-width:1;"/><ellipse cx="330.471" cy="1175.059" rx="6" ry="6" fill="#222" style="stroke:#222;stroke-width:1;"/><line x1="330.471" y1="72.297" x2="330.471" y2="92.297" style="stroke:#181818;stroke-width:1;"/><polygon points="326.471,82.297,330.471,92.297,334.471,82.297,330.471,86.297" fill="#181818" style="stroke:#181818;stroke-width:1;stroke-linejoin:miter;stroke-miterlimit:10;"/><line x1="330.471" y1="126.266" x2="330.471" y2="146.266" style="stroke:#181818;stroke-width:1;"/><polygon points="326.471,136.266,330.471,146.266,334.471,136.266,330.471,140.266" fill="#181818" style="stroke:#181818;stroke-width:1;stroke-linejoin:miter;stroke-miterlimit:10;"/><line x1="330.471" y1="180.234" x2="330.471" y2="200.234" style="stroke:#181818;stroke-width:1;"/><polygon points="326.471,190.234,330.471,200.234,334.471,190.234,330.471,194.234" fill="#181818" style="stroke:#181818;stroke-width:1;stroke-linejoin:miter;stroke-miterlimit:10;"/><line x1="330.471" y1="460.789" x2="330.471" y2="504.5" style="stroke:#181818;stroke-width:1;"/><polygon points="326.471,494.5,330.471,504.5,334.471,494.5,330.471,498.5" fill="#181818" style="stroke:#181818;stroke-width:1;stroke-linejoin:miter;stroke-miterlimit:10;"/><line x1="431.121" y1="448.789" x2="519.206" y2="448.789" style="stroke:#F00;stroke-width:1;"/><polygon points="509.206,444.789,519.206,448.789,509.206,452.789,513.206,448.789" fill="#F00" style="stroke:#F00;stroke-width:1;stroke-linejoin:miter;stroke-miterlimit:10;"/><line x1="330.471" y1="412.085" x2="330.471" y2="436.789" style="stroke:#181818;stroke-width:1;"/><polygon points="326.471,426.789,330.471,436.789,334.471,426.789,330.471,430.789" fill="#181818" style="stroke:#181818;stroke-width:1;stroke-linejoin:miter;stroke-miterlimit:10;"/><line x1="572.655" y1="562.5" x2="572.655" y2="586.902" style="stroke:#181818;stroke-width:1;"/><polygon points="568.655,576.902,572.655,586.902,576.655,576.902,572.655,580.902" fill="#181818" style="stroke:#181818;stroke-width:1;stroke-linejoin:miter;stroke-miterlimit:10;"/><line x1="681.463" y1="550.5" x2="693.463" y2="550.5" style="stroke:#181818;stroke-width:1;"/><polygon points="689.463,593.886,693.463,603.886,697.463,593.886,693.463,597.886" fill="#181818" style="stroke:#181818;stroke-width:1;stroke-linejoin:miter;stroke-miterlimit:10;"/><line x1="693.463" y1="550.5" x2="693.463" y2="652.871" style="stroke:#181818;stroke-width:1;"/><line x1="693.463" y1="652.871" x2="584.655" y2="652.871" style="stroke:#181818;stroke-width:1;"/><polygon points="594.655,648.871,584.655,652.871,594.655,656.871,590.655,652.871" fill="#181818" style="stroke:#181818;stroke-width:1;stroke-linejoin:miter;stroke-miterlimit:10;"/><line x1="572.655" y1="620.871" x2="572.655" y2="640.871" style="stroke:#181818;stroke-width:1;"/><polygon points="568.655,630.871,572.655,640.871,576.655,630.871,572.655,634.871" fill="#181818" style="stroke:#181818;stroke-width:1;stroke-linejoin:miter;stroke-miterlimit:10;"/><line x1="771.295" y1="884.324" x2="771.295" y2="904.324" style="stroke:#181818;stroke-width:1;"/><polygon points="767.295,894.324,771.295,904.324,775.295,894.324,771.295,898.324" fill="#181818" style="stroke:#181818;stroke-width:1;stroke-linejoin:miter;stroke-miterlimit:10;"/><line x1="519.67" y1="777.136" x2="260.934" y2="777.136" style="stroke:#181818;stroke-width:1;"/><line x1="260.934" y1="777.136" x2="260.934" y2="837.55" style="stroke:#181818;stroke-width:1;"/><polygon points="256.934,827.55,260.934,837.55,264.934,827.55,260.934,831.55" fill="#181818" style="stroke:#181818;stroke-width:1;stroke-linejoin:miter;stroke-miterlimit:10;"/><text x="264.43" y="811.151" fill="#000" font-size="11" textLength="90.831">resource is a file</text><line x1="625.639" y1="777.136" x2="937.675" y2="777.136" style="stroke:#181818;stroke-width:1;"/><line x1="937.675" y1="777.136" x2="937.675" y2="837.55" style="stroke:#181818;stroke-width:1;"/><polygon points="933.675,827.55,937.675,837.55,941.675,827.55,937.675,831.55" fill="#181818" style="stroke:#181818;stroke-width:1;stroke-linejoin:miter;stroke-miterlimit:10;"/><text x="937.675" y="811.151" fill="#000" font-size="11"> </text><text x="941.171" y="811.151" fill="#F00" font-size="11" textLength="27.065">error</text><line x1="474.392" y1="777.136" x2="474.392" y2="837.55" style="stroke:#181818;stroke-width:1;"/><polygon points="470.392,827.55,474.392,837.55,478.392,827.55,474.392,831.55" fill="#181818" style="stroke:#181818;stroke-width:1;stroke-linejoin:miter;stroke-miterlimit:10;"/><text x="477.889" y="806.151" fill="#000" font-size="11" textLength="123.53">resource is a directory</text><line x1="771.295" y1="777.136" x2="771.295" y2="850.355" style="stroke:#181818;stroke-width:1;"/><polygon points="767.295,840.355,771.295,850.355,775.295,840.355,771.295,844.355" fill="#181818" style="stroke:#181818;stroke-width:1;stroke-linejoin:miter;stroke-miterlimit:10;"/><text x="774.792" y="806.151" fill="#000" font-size="11" textLength="100.504">resource is a bash</text><text x="771.295" y="818.956" fill="#000" font-size="11" textLength="107.669">framework function</text><line x1="260.934" y1="871.519" x2="260.934" y2="960.292" style="stroke:#181818;stroke-width:1;"/><line x1="260.934" y1="960.292" x2="560.655" y2="960.292" style="stroke:#181818;stroke-width:1;"/><polygon points="550.655,956.292,560.655,960.292,550.655,964.292,554.655,960.292" fill="#181818" style="stroke:#181818;stroke-width:1;stroke-linejoin:miter;stroke-miterlimit:10;"/><line x1="771.295" y1="938.292" x2="771.295" y2="960.292" style="stroke:#181818;stroke-width:1;"/><line x1="771.295" y1="960.292" x2="584.655" y2="960.292" style="stroke:#181818;stroke-width:1;"/><polygon points="594.655,956.292,584.655,960.292,594.655,964.292,590.655,960.292" fill="#181818" style="stroke:#181818;stroke-width:1;stroke-linejoin:miter;stroke-miterlimit:10;"/><line x1="474.392" y1="871.519" x2="474.392" y2="960.292" style="stroke:#181818;stroke-width:1;"/><polygon points="470.392,950.292,474.392,960.292,478.392,950.292,474.392,954.292" fill="#181818" style="stroke:#181818;stroke-width:1;stroke-linejoin:miter;stroke-miterlimit:10;"/><line x1="572.655" y1="745.136" x2="572.655" y2="765.136" style="stroke:#181818;stroke-width:1;"/><polygon points="568.655,755.136,572.655,765.136,576.655,755.136,572.655,759.136" fill="#181818" style="stroke:#181818;stroke-width:1;stroke-linejoin:miter;stroke-miterlimit:10;"/><line x1="572.655" y1="664.871" x2="572.655" y2="711.167" style="stroke:#181818;stroke-width:1;"/><polygon points="568.655,701.167,572.655,711.167,576.655,701.167,572.655,705.167" fill="#181818" style="stroke:#181818;stroke-width:1;stroke-linejoin:miter;stroke-miterlimit:10;"/><line x1="572.655" y1="1032.996" x2="572.655" y2="1054.996" style="stroke:#181818;stroke-width:1;"/><line x1="572.655" y1="1054.996" x2="342.471" y2="1054.996" style="stroke:#181818;stroke-width:1;"/><polygon points="352.471,1050.996,342.471,1054.996,352.471,1058.996,348.471,1054.996" fill="#181818" style="stroke:#181818;stroke-width:1;stroke-linejoin:miter;stroke-miterlimit:10;"/><line x1="678.684" y1="1020.996" x2="758.304" y2="1020.996" style="stroke:#F00;stroke-width:1;"/><polygon points="748.304,1016.996,758.304,1020.996,748.304,1024.996,752.304,1020.996" fill="#F00" style="stroke:#F00;stroke-width:1;stroke-linejoin:miter;stroke-miterlimit:10;"/><line x1="572.655" y1="972.292" x2="572.655" y2="1008.996" style="stroke:#181818;stroke-width:1;"/><polygon points="568.655,998.996,572.655,1008.996,576.655,998.996,572.655,1002.996" fill="#181818" style="stroke:#181818;stroke-width:1;stroke-linejoin:miter;stroke-miterlimit:10;"/><line x1="232.961" y1="516.5" x2="88.288" y2="516.5" style="stroke:#181818;stroke-width:1;"/><line x1="88.288" y1="516.5" x2="88.288" y2="538.5" style="stroke:#181818;stroke-width:1;"/><polygon points="84.288,528.5,88.288,538.5,92.288,528.5,88.288,532.5" fill="#181818" style="stroke:#181818;stroke-width:1;stroke-linejoin:miter;stroke-miterlimit:10;"/><line x1="427.982" y1="516.5" x2="572.655" y2="516.5" style="stroke:#181818;stroke-width:1;"/><line x1="572.655" y1="516.5" x2="572.655" y2="538.5" style="stroke:#181818;stroke-width:1;"/><polygon points="568.655,528.5,572.655,538.5,576.655,528.5,572.655,532.5" fill="#181818" style="stroke:#181818;stroke-width:1;stroke-linejoin:miter;stroke-miterlimit:10;"/><line x1="88.288" y1="572.468" x2="88.288" y2="1054.996" style="stroke:#181818;stroke-width:1;"/><line x1="88.288" y1="1054.996" x2="318.471" y2="1054.996" style="stroke:#181818;stroke-width:1;"/><polygon points="308.471,1050.996,318.471,1054.996,308.471,1058.996,312.471,1054.996" fill="#181818" style="stroke:#181818;stroke-width:1;stroke-linejoin:miter;stroke-miterlimit:10;"/><line x1="330.471" y1="278.203" x2="330.471" y2="336.21" style="stroke:#008000;stroke-width:1;"/><polygon points="326.471,326.21,330.471,336.21,334.471,326.21,330.471,330.21" fill="#008000" style="stroke:#008000;stroke-width:1;stroke-linejoin:miter;stroke-miterlimit:10;"/><line x1="330.471" y1="1066.996" x2="330.471" y2="1078.09" style="stroke:#008000;stroke-width:1;"/><line x1="330.471" y1="1078.09" x2="995.733" y2="1078.09" style="stroke:#008000;stroke-width:1;"/><polygon points="991.733,721.304,995.733,711.304,999.733,721.304,995.733,717.304" fill="#008000" style="stroke:#008000;stroke-width:1;stroke-linejoin:miter;stroke-miterlimit:10;"/><line x1="995.733" y1="266.203" x2="995.733" y2="1078.09" style="stroke:#008000;stroke-width:1;"/><line x1="995.733" y1="266.203" x2="389.254" y2="266.203" style="stroke:#008000;stroke-width:1;"/><polygon points="399.254,262.203,389.254,266.203,399.254,270.203,395.254,266.203" fill="#008000" style="stroke:#008000;stroke-width:1;stroke-linejoin:miter;stroke-miterlimit:10;"/><text x="330.471" y="1088.301" fill="#008000" font-size="11" textLength="163.802">process next embed directive</text><line x1="271.689" y1="266.203" x2="29" y2="266.203" style="stroke:#181818;stroke-width:1;"/><polygon points="25,713.707,29,723.707,33,713.707,29,717.707" fill="#181818" style="stroke:#181818;stroke-width:1;stroke-linejoin:miter;stroke-miterlimit:10;"/><line x1="29" y1="266.203" x2="29" y2="1095.09" style="stroke:#181818;stroke-width:1;"/><line x1="29" y1="1095.09" x2="330.471" y2="1095.09" style="stroke:#181818;stroke-width:1;"/><line x1="330.471" y1="1095.09" x2="330.471" y2="1110.09" style="stroke:#181818;stroke-width:1;"/><polygon points="326.471,1100.09,330.471,1110.09,334.471,1100.09,330.471,1104.09" fill="#181818" style="stroke:#181818;stroke-width:1;stroke-linejoin:miter;stroke-miterlimit:10;"/><line x1="330.471" y1="234.203" x2="330.471" y2="254.203" style="stroke:#181818;stroke-width:1;"/><polygon points="326.471,244.203,330.471,254.203,334.471,244.203,330.471,248.203" fill="#181818" style="stroke:#181818;stroke-width:1;stroke-linejoin:miter;stroke-miterlimit:10;"/><line x1="330.471" y1="1144.059" x2="330.471" y2="1164.059" style="stroke:#181818;stroke-width:1;"/><polygon points="326.471,1154.059,330.471,1164.059,334.471,1154.059,330.471,1158.059" fill="#181818" style="stroke:#181818;stroke-width:1;stroke-linejoin:miter;stroke-miterlimit:10;"/><?plantuml-src bLLTRzem57tFhxWIbGP8RKO7RGaLLTUlbsgJrhsjUt2I6t2Rs97jm51LVljkdAG90TQE5npxVfnxVC-ruIP626IIyXWLOE9Z25myOM2u58v-vY9bYYNmuW1yWhangVPSTyRDFFEFoCzDOoPCbiJrme-bxmx7Wy4eZ8BJS3WOdOnF1ZZoXsDsDWW-Z_tXwJ1ax7HyTlp5rIfm1HfNoqm564armpgKDgiOtLibauSAoK_va6yUFR45wzmFXYC2nWZjWflLDMU95E5N5ZpFbCn4U2LZgQ1pQNyDmvkt8uMXy-femvHn7AyYOaBhgtBjUJSvAvvNq08HeRcbWmcSdtSUKiN5x4uXYkbqbrF4OqF4_iDfEQTzw5hghxdAcL_WHG-uXkvvaAFqPjQqk9mehwj7jHp-wjZztuTJ-Y9k3C_l3BOWMBzsMdkX0Dk0AP16EDY4Osq1rkjCezxEmBH6PIxrDvRWUlqXunzON7XfFjcY9T_bKSaBX1KI29W07y7237VHj60nRpZqmCnHb9WsEGF0c6gjtAaLfbmKxZRhesYSr07hMBHVHQ9O8dJAVnuvszbU7QTPaI2kWCKAMRWg5MVhoT52TuMwoEE5N9CSLa1IJ2TE2tApCLJ9QCLG5RFNehAoqn_8tiY_P4hGzKnQDRxNTz2vvxEvkLCKugMAkSUqtp-emFNx-HUp7TNlx-uE0Bta9fX3zwrqiqf9EkLfm7AcQbweKnX4kTWgYxrGh5Jt9DqPjkWEgLRlnoPH_LTed-dveuXezE5IgcU8Cc67ymUgg7nkIvTzUNT5yBbmot7u3jo6I50f6geriBP6QfNOLN5_zljrJvVMZn54ZCUPGhXeIxf80HjYBPhMujcGCHDvR9Cf0SUJjd99Mli6XMruf-xyXW5iY35LahIbGU0V0wtXHSyA-PS3NqX899NJ7d16GXcZHm_AzyoacSdfo693_jh8z2y0?></g></svg>
