<svg xmlns="http://www.w3.org/2000/svg" xmlns:xlink="http://www.w3.org/1999/xlink" contentStyleType="text/css" height="939px" preserveAspectRatio="none" style="width:1287px;height:939px;background:#FFFFFF;" version="1.1" viewBox="0 0 1287 939" width="1287px" zoomAndPan="magnify"><defs/><g><!--cluster main--><g id="cluster_main"><path d="M8.5,6 L48.3008,6 A3.75,3.75 0 0 1 50.8008,8.5 L57.8008,28.2969 L420.5,28.2969 A2.5,2.5 0 0 1 423,30.7969 L423,363.5 A2.5,2.5 0 0 1 420.5,366 L8.5,366 A2.5,2.5 0 0 1 6,363.5 L6,8.5 A2.5,2.5 0 0 1 8.5,6 " fill="none" style="stroke:#000000;stroke-width:1.5;"/><line style="stroke:#000000;stroke-width:1.5;" x1="6" x2="57.8008" y1="28.2969" y2="28.2969"/><text fill="#000000" font-family="sans-serif" font-size="14" font-weight="bold" lengthAdjust="spacing" textLength="38.8008" x="10" y="20.9951">main</text></g><!--cluster services--><g id="cluster_services"><path d="M449.5,269 L515.2842,269 A3.75,3.75 0 0 1 517.7842,271.5 L524.7842,291.2969 L1269.5,291.2969 A2.5,2.5 0 0 1 1272,293.7969 L1272,500.5 A2.5,2.5 0 0 1 1269.5,503 L449.5,503 A2.5,2.5 0 0 1 447,500.5 L447,271.5 A2.5,2.5 0 0 1 449.5,269 " fill="none" style="stroke:#000000;stroke-width:1.5;"/><line style="stroke:#000000;stroke-width:1.5;" x1="447" x2="524.7842" y1="291.2969" y2="291.2969"/><text fill="#000000" font-family="sans-serif" font-size="14" font-weight="bold" lengthAdjust="spacing" textLength="64.7842" x="451" y="283.9951">services</text></g><!--cluster model--><g id="cluster_model"><path d="M467.5,552 L517.0215,552 A3.75,3.75 0 0 1 519.5215,554.5 L526.5215,574.2969 L622.5,574.2969 A2.5,2.5 0 0 1 625,576.7969 L625,646.5 A2.5,2.5 0 0 1 622.5,649 L467.5,649 A2.5,2.5 0 0 1 465,646.5 L465,554.5 A2.5,2.5 0 0 1 467.5,552 " fill="none" style="stroke:#000000;stroke-width:1.5;"/><line style="stroke:#000000;stroke-width:1.5;" x1="465" x2="526.5215" y1="574.2969" y2="574.2969"/><text fill="#000000" font-family="sans-serif" font-size="14" font-weight="bold" lengthAdjust="spacing" textLength="48.5215" x="469" y="566.9951">model</text></g><!--cluster render--><g id="cluster_render"><path d="M806.5,835 L860.2871,835 A3.75,3.75 0 0 1 862.7871,837.5 L869.7871,857.2969 L995.5,857.2969 A2.5,2.5 0 0 1 998,859.7969 L998,929.5 A2.5,2.5 0 0 1 995.5,932 L806.5,932 A2.5,2.5 0 0 1 804,929.5 L804,837.5 A2.5,2.5 0 0 1 806.5,835 " fill="none" style="stroke:#000000;stroke-width:1.5;"/><line style="stroke:#000000;stroke-width:1.5;" x1="804" x2="869.7871" y1="857.2969" y2="857.2969"/><text fill="#000000" font-family="sans-serif" font-size="14" font-weight="bold" lengthAdjust="spacing" textLength="52.7871" x="808" y="849.9951">render</text></g><!--cluster generator--><g id="cluster_generator"><path d="M668.5,552 L748.0449,552 A3.75,3.75 0 0 1 750.5449,554.5 L757.5449,574.2969 L911.5,574.2969 A2.5,2.5 0 0 1 914,576.7969 L914,783.5 A2.5,2.5 0 0 1 911.5,786 L668.5,786 A2.5,2.5 0 0 1 666,783.5 L666,554.5 A2.5,2.5 0 0 1 668.5,552 " fill="none" style="stroke:#000000;stroke-width:1.5;"/><line style="stroke:#000000;stroke-width:1.5;" x1="666" x2="757.5449" y1="574.2969" y2="574.2969"/><text fill="#000000" font-family="sans-serif" font-size="14" font-weight="bold" lengthAdjust="spacing" textLength="78.5449" x="670" y="566.9951">generator</text></g><!--cluster compiler--><g id="cluster_compiler"><path d="M1120.5,552 L1190.0234,552 A3.75,3.75 0 0 1 1192.5234,554.5 L1199.5234,574.2969 L1251.5,574.2969 A2.5,2.5 0 0 1 1254,576.7969 L1254,646.5 A2.5,2.5 0 0 1 1251.5,649 L1120.5,649 A2.5,2.5 0 0 1 1118,646.5 L1118,554.5 A2.5,2.5 0 0 1 1120.5,552 " fill="none" style="stroke:#000000;stroke-width:1.5;"/><line style="stroke:#000000;stroke-width:1.5;" x1="1118" x2="1199.5234" y1="574.2969" y2="574.2969"/><text fill="#000000" font-family="sans-serif" font-size="14" font-weight="bold" lengthAdjust="spacing" textLength="68.5234" x="1122" y="566.9951">compiler</text></g><!--entity Main--><g id="elem_Main"><rect fill="#F1F1F1" height="46.2969" rx="2.5" ry="2.5" style="stroke:#181818;stroke-width:0.5;" width="73.4209" x="157.5" y="41"/><rect fill="#F1F1F1" height="10" style="stroke:#181818;stroke-width:0.5;" width="15" x="210.9209" y="46"/><rect fill="#F1F1F1" height="2" style="stroke:#181818;stroke-width:0.5;" width="4" x="208.9209" y="48"/><rect fill="#F1F1F1" height="2" style="stroke:#181818;stroke-width:0.5;" width="4" x="208.9209" y="52"/><text fill="#000000" font-family="sans-serif" font-size="14" lengthAdjust="spacing" textLength="33.4209" x="172.5" y="73.9951">Main</text></g><!--entity ParseCliInterface--><g id="elem_ParseCliInterface"><ellipse cx="89" cy="177" fill="#F1F1F1" rx="8" ry="8" style="stroke:#181818;stroke-width:0.5;"/><text fill="#000000" font-family="sans-serif" font-size="14" lengthAdjust="spacing" textLength="118.918" x="29.541" y="206.9951">ParseCliInterface</text></g><!--entity BinaryModelServiceInterface--><g id="elem_BinaryModelServiceInterface"><ellipse cx="299" cy="177" fill="#F1F1F1" rx="8" ry="8" style="stroke:#181818;stroke-width:0.5;"/><text fill="#000000" font-family="sans-serif" font-size="14" lengthAdjust="spacing" textLength="201.4414" x="198.2793" y="206.9951">BinaryModelServiceInterface</text></g><!--entity ParseCli--><g id="elem_ParseCli"><rect fill="#F1F1F1" height="46.2969" rx="2.5" ry="2.5" style="stroke:#181818;stroke-width:0.5;" width="96.2393" x="41" y="304"/><rect fill="#F1F1F1" height="10" style="stroke:#181818;stroke-width:0.5;" width="15" x="117.2393" y="309"/><rect fill="#F1F1F1" height="2" style="stroke:#181818;stroke-width:0.5;" width="4" x="115.2393" y="311"/><rect fill="#F1F1F1" height="2" style="stroke:#181818;stroke-width:0.5;" width="4" x="115.2393" y="315"/><text fill="#000000" font-family="sans-serif" font-size="14" lengthAdjust="spacing" textLength="56.2393" x="56" y="336.9951">ParseCli</text></g><!--entity BinaryModelService--><g id="elem_BinaryModelService"><rect fill="#F1F1F1" height="46.2969" rx="2.5" ry="2.5" style="stroke:#181818;stroke-width:0.5;" width="178.7627" x="664.5" y="304"/><rect fill="#F1F1F1" height="10" style="stroke:#181818;stroke-width:0.5;" width="15" x="823.2627" y="309"/><rect fill="#F1F1F1" height="2" style="stroke:#181818;stroke-width:0.5;" width="4" x="821.2627" y="311"/><rect fill="#F1F1F1" height="2" style="stroke:#181818;stroke-width:0.5;" width="4" x="821.2627" y="315"/><text fill="#000000" font-family="sans-serif" font-size="14" lengthAdjust="spacing" textLength="138.7627" x="679.5" y="336.9951">BinaryModelService</text></g><!--entity BinaryModelInterface--><g id="elem_BinaryModelInterface"><ellipse cx="545" cy="458" fill="#F1F1F1" rx="8" ry="8" style="stroke:#181818;stroke-width:0.5;"/><text fill="#000000" font-family="sans-serif" font-size="14" lengthAdjust="spacing" textLength="149.7002" x="470.1499" y="487.9951">BinaryModelInterface</text></g><!--entity TemplateContextInterface--><g id="elem_TemplateContextInterface"><ellipse cx="981" cy="458" fill="#F1F1F1" rx="8" ry="8" style="stroke:#181818;stroke-width:0.5;"/><text fill="#000000" font-family="sans-serif" font-size="14" lengthAdjust="spacing" textLength="184.0303" x="888.9849" y="487.9951">TemplateContextInterface</text></g><!--entity CodeGeneratorInterface--><g id="elem_CodeGeneratorInterface"><ellipse cx="754" cy="458" fill="#F1F1F1" rx="8" ry="8" style="stroke:#181818;stroke-width:0.5;"/><text fill="#000000" font-family="sans-serif" font-size="14" lengthAdjust="spacing" textLength="169.6133" x="669.1934" y="487.9951">CodeGeneratorInterface</text></g><!--entity CompilerInterface--><g id="elem_CompilerInterface"><ellipse cx="1186" cy="458" fill="#F1F1F1" rx="8" ry="8" style="stroke:#181818;stroke-width:0.5;"/><text fill="#000000" font-family="sans-serif" font-size="14" lengthAdjust="spacing" textLength="125.6924" x="1123.1538" y="487.9951">CompilerInterface</text></g><!--entity BinaryModel--><g id="elem_BinaryModel"><rect fill="#F1F1F1" height="46.2969" rx="2.5" ry="2.5" style="stroke:#181818;stroke-width:0.5;" width="127.0215" x="481.5" y="587"/><rect fill="#F1F1F1" height="10" style="stroke:#181818;stroke-width:0.5;" width="15" x="588.5215" y="592"/><rect fill="#F1F1F1" height="2" style="stroke:#181818;stroke-width:0.5;" width="4" x="586.5215" y="594"/><rect fill="#F1F1F1" height="2" style="stroke:#181818;stroke-width:0.5;" width="4" x="586.5215" y="598"/><text fill="#000000" font-family="sans-serif" font-size="14" lengthAdjust="spacing" textLength="87.0215" x="496.5" y="619.9951">BinaryModel</text></g><!--entity TemplateContext--><g id="elem_TemplateContext"><rect fill="#F1F1F1" height="46.2969" rx="2.5" ry="2.5" style="stroke:#181818;stroke-width:0.5;" width="161.3516" x="820.5" y="870"/><rect fill="#F1F1F1" height="10" style="stroke:#181818;stroke-width:0.5;" width="15" x="961.8516" y="875"/><rect fill="#F1F1F1" height="2" style="stroke:#181818;stroke-width:0.5;" width="4" x="959.8516" y="877"/><rect fill="#F1F1F1" height="2" style="stroke:#181818;stroke-width:0.5;" width="4" x="959.8516" y="881"/><text fill="#000000" font-family="sans-serif" font-size="14" lengthAdjust="spacing" textLength="121.3516" x="835.5" y="902.9951">TemplateContext</text></g><!--entity CodeGenerator--><g id="elem_CodeGenerator"><rect fill="#F1F1F1" height="46.2969" rx="2.5" ry="2.5" style="stroke:#181818;stroke-width:0.5;" width="146.9346" x="689.5" y="587"/><rect fill="#F1F1F1" height="10" style="stroke:#181818;stroke-width:0.5;" width="15" x="816.4346" y="592"/><rect fill="#F1F1F1" height="2" style="stroke:#181818;stroke-width:0.5;" width="4" x="814.4346" y="594"/><rect fill="#F1F1F1" height="2" style="stroke:#181818;stroke-width:0.5;" width="4" x="814.4346" y="598"/><text fill="#000000" font-family="sans-serif" font-size="14" lengthAdjust="spacing" textLength="106.9346" x="704.5" y="619.9951">CodeGenerator</text></g><!--entity TemplateRenderingInterface--><g id="elem_TemplateRenderingInterface"><ellipse cx="790" cy="741" fill="#F1F1F1" rx="8" ry="8" style="stroke:#181818;stroke-width:0.5;"/><text fill="#000000" font-family="sans-serif" font-size="14" lengthAdjust="spacing" textLength="201.0586" x="689.4707" y="770.9951">TemplateRenderingInterface</text></g><!--entity Compiler--><g id="elem_Compiler"><rect fill="#F1F1F1" height="46.2969" rx="2.5" ry="2.5" style="stroke:#181818;stroke-width:0.5;" width="103.0137" x="1134.5" y="587"/><rect fill="#F1F1F1" height="10" style="stroke:#181818;stroke-width:0.5;" width="15" x="1217.5137" y="592"/><rect fill="#F1F1F1" height="2" style="stroke:#181818;stroke-width:0.5;" width="4" x="1215.5137" y="594"/><rect fill="#F1F1F1" height="2" style="stroke:#181818;stroke-width:0.5;" width="4" x="1215.5137" y="598"/><text fill="#000000" font-family="sans-serif" font-size="14" lengthAdjust="spacing" textLength="63.0137" x="1149.5" y="619.9951">Compiler</text></g><!--link Main to ParseCliInterface--><g id="link_Main_ParseCliInterface"><path d="M173,87.2 C149.42,112.12 116.5124,146.9105 100.6924,163.6405 " fill="none" id="Main-to-ParseCliInterface" style="stroke:#181818;stroke-width:1.0;stroke-dasharray:7.0,7.0;"/><polygon fill="#181818" points="96.57,168,105.66,164.209,100.0053,164.367,99.8473,158.7124,96.57,168" style="stroke:#181818;stroke-width:1.0;"/></g><!--link Main to BinaryModelServiceInterface--><g id="link_Main_BinaryModelServiceInterface"><path d="M215,87.2 C238.58,112.12 271.4876,146.9105 287.3076,163.6405 " fill="none" id="Main-to-BinaryModelServiceInterface" style="stroke:#181818;stroke-width:1.0;stroke-dasharray:7.0,7.0;"/><polygon fill="#181818" points="291.43,168,288.1527,158.7124,287.9947,164.367,282.34,164.209,291.43,168" style="stroke:#181818;stroke-width:1.0;"/></g><!--reverse link ParseCliInterface to ParseCli--><g id="link_ParseCliInterface_ParseCli"><path d="M89,196.38 C89,218.76 89,270.49 89,303.88 " fill="none" id="ParseCliInterface-backto-ParseCli" style="stroke:#181818;stroke-width:1.0;"/><path d="M80.5428,189.4582 A9,9 0 0 0 97.4572 189.4582" fill="none" style="stroke:#181818;stroke-width:1.5;"/><text fill="#000000" font-family="sans-serif" font-size="13" lengthAdjust="spacing" textLength="92.8154" x="90" y="249.0669">&#171;implements&#187;</text></g><!--reverse link BinaryModelServiceInterface to BinaryModelService--><g id="link_BinaryModelServiceInterface_BinaryModelService"><path d="M317.6,184.0519 C364.69,199.3619 573.59,267.32 686.3,303.98 " fill="none" id="BinaryModelServiceInterface-backto-BinaryModelService" style="stroke:#181818;stroke-width:1.0;"/><path d="M308.4024,189.9546 A9,9 0 0 0 313.6323 173.8689" fill="none" style="stroke:#181818;stroke-width:1.5;"/><text fill="#000000" font-family="sans-serif" font-size="13" lengthAdjust="spacing" textLength="92.8154" x="527" y="249.0669">&#171;implements&#187;</text></g><!--link BinaryModelService to BinaryModelInterface--><g id="link_BinaryModelService_BinaryModelInterface"><path d="M718.07,350.18 C668.59,380.72 587.4755,430.7782 559.3055,448.1682 " fill="none" id="BinaryModelService-to-BinaryModelInterface" style="stroke:#181818;stroke-width:1.0;stroke-dasharray:7.0,7.0;"/><polygon fill="#181818" points="554.2,451.32,563.9595,449.996,558.4546,448.6935,559.7571,443.1887,554.2,451.32" style="stroke:#181818;stroke-width:1.0;"/><text fill="#000000" font-family="sans-serif" font-size="13" lengthAdjust="spacing" textLength="45.6904" x="663" y="395.0669">&#171;uses&#187;</text></g><!--link BinaryModelService to TemplateContextInterface--><g id="link_BinaryModelService_TemplateContextInterface"><path d="M792.76,350.03 C846.96,380.83 936.873,431.9264 966.623,448.8264 " fill="none" id="BinaryModelService-to-TemplateContextInterface" style="stroke:#181818;stroke-width:1.0;stroke-dasharray:7.0,7.0;"/><polygon fill="#181818" points="971.84,451.79,965.9902,443.8666,967.4925,449.3203,962.0388,450.8226,971.84,451.79" style="stroke:#181818;stroke-width:1.0;"/><text fill="#000000" font-family="sans-serif" font-size="13" lengthAdjust="spacing" textLength="45.6904" x="875" y="395.0669">&#171;uses&#187;</text></g><!--link BinaryModelService to CodeGeneratorInterface--><g id="link_BinaryModelService_CodeGeneratorInterface"><path d="M754,350.18 C754,379.42 754,423.46 754,442.92 " fill="none" id="BinaryModelService-to-CodeGeneratorInterface" style="stroke:#181818;stroke-width:1.0;stroke-dasharray:7.0,7.0;"/><polygon fill="#181818" points="754,448.92,758,439.92,754,443.92,750,439.92,754,448.92" style="stroke:#181818;stroke-width:1.0;"/><text fill="#000000" font-family="sans-serif" font-size="13" lengthAdjust="spacing" textLength="45.6904" x="755" y="395.0669">&#171;uses&#187;</text></g><!--link BinaryModelService to CompilerInterface--><g id="link_BinaryModelService_CompilerInterface"><path d="M831.59,350.08 C901.63,370.16 1007.43,400.86 1099,429 C1127.51,437.76 1155.3736,446.8656 1171.1836,452.0956 " fill="none" id="BinaryModelService-to-CompilerInterface" style="stroke:#181818;stroke-width:1.0;stroke-dasharray:7.0,7.0;"/><polygon fill="#181818" points="1176.88,453.98,1169.5916,447.3558,1172.133,452.4097,1167.0791,454.951,1176.88,453.98" style="stroke:#181818;stroke-width:1.0;"/><text fill="#000000" font-family="sans-serif" font-size="13" lengthAdjust="spacing" textLength="45.6904" x="995" y="395.0669">&#171;uses&#187;</text></g><!--reverse link BinaryModelInterface to BinaryModel--><g id="link_BinaryModelInterface_BinaryModel"><path d="M545,477.06 C545,499.46 545,552.99 545,586.95 " fill="none" id="BinaryModelInterface-backto-BinaryModel" style="stroke:#181818;stroke-width:1.0;"/><path d="M536.5428,470.1382 A9,9 0 0 0 553.4572 470.1382" fill="none" style="stroke:#181818;stroke-width:1.5;"/><text fill="#000000" font-family="sans-serif" font-size="13" lengthAdjust="spacing" textLength="92.8154" x="546" y="532.0669">&#171;implements&#187;</text></g><!--reverse link TemplateContextInterface to TemplateContext--><g id="link_TemplateContextInterface_TemplateContext"><path d="M982.2492,477.1182 C984.8792,516.9282 992.74,684.7 947,819 C940.72,837.43 928.96,855.97 918.9,869.75 " fill="none" id="TemplateContextInterface-backto-TemplateContext" style="stroke:#181818;stroke-width:1.0;"/><path d="M973.3541,470.769 A9,9 0 0 0 990.2318 469.654" fill="none" style="stroke:#181818;stroke-width:1.5;"/><text fill="#000000" font-family="sans-serif" font-size="13" lengthAdjust="spacing" textLength="92.8154" x="978" y="678.0669">&#171;implements&#187;</text></g><!--reverse link CodeGeneratorInterface to CodeGenerator--><g id="link_CodeGeneratorInterface_CodeGenerator"><path d="M755.0816,477.0419 C756.4316,499.4419 759.64,552.99 761.68,586.95 " fill="none" id="CodeGeneratorInterface-backto-CodeGenerator" style="stroke:#181818;stroke-width:1.0;"/><path d="M746.2233,470.6414 A9,9 0 0 0 763.1071 469.6238" fill="none" style="stroke:#181818;stroke-width:1.5;"/><text fill="#000000" font-family="sans-serif" font-size="13" lengthAdjust="spacing" textLength="92.8154" x="759" y="532.0669">&#171;implements&#187;</text></g><!--link CodeGenerator to TemplateRenderingInterface--><g id="link_CodeGenerator_TemplateRenderingInterface"><path d="M767.64,633.18 C773.76,662.42 783.0117,706.5871 787.0817,726.0471 " fill="none" id="CodeGenerator-to-TemplateRenderingInterface" style="stroke:#181818;stroke-width:1.0;stroke-dasharray:7.0,7.0;"/><polygon fill="#181818" points="788.31,731.92,790.3828,722.2917,787.2864,727.0259,782.5523,723.9295,788.31,731.92" style="stroke:#181818;stroke-width:1.0;"/></g><!--reverse link TemplateRenderingInterface to TemplateContext--><g id="link_TemplateRenderingInterface_TemplateContext"><path d="M801.917,758.0994 C818.487,780.4994 859.55,835.99 884.68,869.95 " fill="none" id="TemplateRenderingInterface-backto-TemplateContext" style="stroke:#181818;stroke-width:1.0;"/><path d="M791.0015,757.5642 A9,9 0 0 0 804.5998 747.5051" fill="none" style="stroke:#181818;stroke-width:1.5;"/><text fill="#000000" font-family="sans-serif" font-size="13" lengthAdjust="spacing" textLength="92.8154" x="846" y="815.0669">&#171;implements&#187;</text></g><!--reverse link CompilerInterface to Compiler--><g id="link_CompilerInterface_Compiler"><path d="M1186,477.06 C1186,499.46 1186,552.99 1186,586.95 " fill="none" id="CompilerInterface-backto-Compiler" style="stroke:#181818;stroke-width:1.0;"/><path d="M1177.5428,470.1382 A9,9 0 0 0 1194.4572 470.1382" fill="none" style="stroke:#181818;stroke-width:1.5;"/><text fill="#000000" font-family="sans-serif" font-size="13" lengthAdjust="spacing" textLength="92.8154" x="1187" y="532.0669">&#171;implements&#187;</text></g><!--SRC=[dPAzJiD048HxFyLI8Oha0L3a0XU88b84T96BbJDOfzoThRqB8aAyEyxPKPpp3mgTjRlptSwEx-zguT8mQJvM1q_G-oIfkTXp2JAiB7qdHDjryvNJSfdIXiKXq-h5UiW75xXkFodBSbnNE-WtoASgq1ySYEbXiQ3jkPmJFT9gfKojOM2zIzFavxAEQu4kh3JpK0iT3kH3EetFHKukv1FWuF27z1tD6-oHLOtmozygpvhACoo4VIMtYqsjDCPrlMEQapA-vFG9yzba17O72RH9xu4OTUUfvVa60JnnbO2zwet778tqOteDsojRzd_LwUO_d1HTA9sHEA7EGriU9Vq2]--></g></svg>
