<?plantuml 1.2026.2?><svg xmlns="http://www.w3.org/2000/svg" xmlns:xlink="http://www.w3.org/1999/xlink" contentStyleType="text/css" data-diagram-type="ACTIVITY" height="2136px" preserveAspectRatio="none" style="width:911px;height:2136px;background:#FFFFFF;" version="1.1" viewBox="0 0 911 2136" width="911px" zoomAndPan="magnify"><title>compiler algorithm</title><defs/><g><rect fill="#FFFFCC" height="26.6406" rx="2.5" ry="2.5" style="stroke:#FFDD88;stroke-width:3;" width="900.438" x="5" y="5"/><text fill="#000000" font-family="monospace" font-size="10" lengthAdjust="spacing" textLength="565.9277" x="10" y="20">This&#160;syntax&#160;is&#160;deprecated,&#160;you&#160;must&#160;add&#160;&lt;&lt;#SpringGreen&gt;&gt;&#160;at&#160;the&#160;end&#160;of&#160;the&#160;line,&#160;after&#160;the&#160;';'</text><g class="title" data-source-line="1"><text fill="#000000" font-family="sans-serif" font-size="14" font-weight="bold" lengthAdjust="spacing" textLength="150.2334" x="371.6023" y="69.6357">compiler algorithm</text></g><ellipse cx="279.4854" cy="93.9375" fill="#222222" rx="10" ry="10" style="stroke:#222222;stroke-width:1;"/><rect fill="#F1F1F1" height="33.9688" rx="12.5" ry="12.5" style="stroke:#181818;stroke-width:0.5;" width="195.7461" x="181.6123" y="123.9375"/><text fill="#000000" font-family="sans-serif" font-size="12" lengthAdjust="spacing" textLength="175.7461" x="191.6123" y="145.0762">compile binaryModelYamlFile</text><rect fill="#F1F1F1" height="33.9688" rx="12.5" ry="12.5" style="stroke:#181818;stroke-width:0.5;" width="293.2168" x="132.877" y="177.9063"/><text fill="#000000" font-family="sans-serif" font-size="12" lengthAdjust="spacing" textLength="273.2168" x="142.877" y="199.0449">model.LoadBinaryModel binaryModelYamlFile</text><polygon fill="#AAAAAA" points="267.4854,231.875,291.4854,231.875,303.4854,243.875,291.4854,255.875,267.4854,255.875,255.4854,243.875,267.4854,231.875" style="stroke:#181818;stroke-width:0.5;"/><text fill="#000000" font-family="sans-serif" font-size="11" lengthAdjust="spacing" textLength="67.8101" x="283.4854" y="266.0854">binaryModel</text><text fill="#000000" font-family="sans-serif" font-size="11" lengthAdjust="spacing" textLength="13.1001" x="272.9353" y="247.6831">ok</text><text fill="#000000" font-family="sans-serif" font-size="11" lengthAdjust="spacing" textLength="27.0649" x="303.4854" y="241.2808">error</text><ellipse cx="352.5503" cy="243.875" fill="none" rx="11" ry="11" style="stroke:#222222;stroke-width:1;"/><ellipse cx="352.5503" cy="243.875" fill="#222222" rx="6" ry="6" style="stroke:#222222;stroke-width:1;"/><rect fill="none" height="249.062" style="stroke:#000000;stroke-width:1.5;" width="488.2485" x="149.1855" y="277.5854"/><path d="M325.7979,277.5854 L325.7979,286.8823 L315.7979,296.8823 L149.1855,296.8823" fill="none" style="stroke:#000000;stroke-width:1.5;"/><text fill="#000000" font-family="sans-serif" font-size="14" lengthAdjust="spacing" textLength="166.6123" x="152.1855" y="291.5806">compiler.GenerateCode</text><rect fill="#F1F1F1" height="33.9688" rx="12.5" ry="12.5" style="stroke:#181818;stroke-width:0.5;" width="240.5996" x="159.1855" y="313.8823"/><text fill="#000000" font-family="sans-serif" font-size="12" lengthAdjust="spacing" textLength="220.5996" x="169.1855" y="335.021">compiler.GenerateCode binaryModel</text><rect fill="#F1F1F1" height="33.9688" rx="12.5" ry="12.5" style="stroke:#181818;stroke-width:0.5;" width="119.082" x="219.9443" y="367.8511"/><text fill="#000000" font-family="sans-serif" font-size="12" lengthAdjust="spacing" textLength="99.082" x="229.9443" y="388.9897">loadGoTemplate</text><path d="M366.1309,418.6714 L366.1309,434.8042 L346.1309,438.8042 L366.1309,442.8042 L366.1309,458.937 A0,0 0 0 0 366.1309,458.937 L627.4341,458.937 A0,0 0 0 0 627.4341,458.937 L627.4341,428.6714 L617.4341,418.6714 L366.1309,418.6714 A0,0 0 0 0 366.1309,418.6714" fill="#FEFFDD" style="stroke:#181818;stroke-width:0.5;"/><path d="M617.4341,418.6714 L617.4341,428.6714 L627.4341,428.6714 L617.4341,418.6714" fill="#FEFFDD" style="stroke:#181818;stroke-width:0.5;"/><text fill="#000000" font-family="sans-serif" font-size="13" lengthAdjust="spacing" textLength="152.8008" x="372.1309" y="435.7383">using binaryModel data</text><text fill="#000000" font-family="sans-serif" font-size="13" lengthAdjust="spacing" textLength="240.3032" x="372.1309" y="450.8711">only commands part for the moment</text><rect fill="#F1F1F1" height="33.9688" rx="12.5" ry="12.5" style="stroke:#181818;stroke-width:0.5;" width="133.291" x="212.8398" y="421.8198"/><text fill="#000000" font-family="sans-serif" font-size="12" lengthAdjust="spacing" textLength="113.291" x="222.8398" y="442.9585">renderGoTemplate</text><polygon fill="#AAAAAA" points="267.4854,478.937,291.4854,478.937,303.4854,490.937,291.4854,502.937,267.4854,502.937,255.4854,490.937,267.4854,478.937" style="stroke:#181818;stroke-width:0.5;"/><text fill="#000000" font-family="sans-serif" font-size="11" lengthAdjust="spacing" textLength="26.5278" x="283.4854" y="513.1475">code</text><text fill="#000000" font-family="sans-serif" font-size="11" lengthAdjust="spacing" textLength="13.1001" x="272.9353" y="494.7451">ok</text><text fill="#000000" font-family="sans-serif" font-size="11" lengthAdjust="spacing" textLength="27.0649" x="303.4854" y="488.3428">error</text><ellipse cx="352.5503" cy="490.937" fill="none" rx="11" ry="11" style="stroke:#222222;stroke-width:1;"/><ellipse cx="352.5503" cy="490.937" fill="#222222" rx="6" ry="6" style="stroke:#222222;stroke-width:1;"/><rect fill="none" height="1147.7148" style="stroke:#000000;stroke-width:1.5;" width="874.438" x="11" y="536.6475"/><path d="M143.6436,536.6475 L143.6436,545.9443 L133.6436,555.9443 L11,555.9443" fill="none" style="stroke:#000000;stroke-width:1.5;"/><text fill="#000000" font-family="sans-serif" font-size="14" lengthAdjust="spacing" textLength="122.6436" x="14" y="550.6426">compiler.Compile</text><rect fill="#F1F1F1" height="33.9688" rx="12.5" ry="12.5" style="stroke:#181818;stroke-width:0.5;" width="416.7383" x="71.1162" y="572.9443"/><text fill="#000000" font-family="sans-serif" font-size="12" lengthAdjust="spacing" textLength="396.7383" x="81.1162" y="594.083">compiler.extractUniqueFrameworkFunctions &amp;functionsMap, code</text><rect fill="#87CEFA" height="540.6914" style="stroke:#000000;stroke-width:1.5;" width="854.438" x="21" y="616.9131"/><path d="M277.0938,616.9131 L277.0938,626.21 L267.0938,636.21 L21,636.21" fill="none" style="stroke:#000000;stroke-width:1.5;"/><text fill="#000000" font-family="sans-serif" font-size="14" lengthAdjust="spacing" textLength="246.0938" x="24" y="630.9082">compiler.retrieveEachFunctionPath</text><path d="M547.9707,653.0615 L547.9707,669.1943 L527.9707,673.1943 L547.9707,677.1943 L547.9707,693.3271 A0,0 0 0 0 547.9707,693.3271 L865.438,693.3271 A0,0 0 0 0 865.438,693.3271 L865.438,663.0615 L855.438,653.0615 L547.9707,653.0615 A0,0 0 0 0 547.9707,653.0615" fill="#FEFFDD" style="stroke:#181818;stroke-width:0.5;"/><path d="M855.438,653.0615 L855.438,663.0615 L865.438,663.0615 L855.438,653.0615" fill="#FEFFDD" style="stroke:#181818;stroke-width:0.5;"/><text fill="#000000" font-family="sans-serif" font-size="13" lengthAdjust="spacing" textLength="296.4673" x="553.9707" y="670.1284">for each function retrieve the full src file path</text><text fill="#000000" font-family="sans-serif" font-size="13" lengthAdjust="spacing" textLength="284.6987" x="553.9707" y="685.2612">try to get also _.sh and ZZZ.sh files if exists</text><rect fill="#F1F1F1" height="33.9688" rx="12.5" ry="12.5" style="stroke:#181818;stroke-width:0.5;" width="496.9707" x="31" y="656.21"/><text fill="#000000" font-family="sans-serif" font-size="12" lengthAdjust="spacing" textLength="476.9707" x="41" y="677.3486">compiler.retrieveEachFunctionPath &amp;functionsMap, binaryModel.BinFile.SrcDirs</text><rect fill="#F1F1F1" height="33.9688" rx="12.5" ry="12.5" style="stroke:#181818;stroke-width:0.5;" width="424.7422" x="67.1143" y="815.6982"/><text fill="#000000" font-family="sans-serif" font-size="12" lengthAdjust="spacing" textLength="404.7422" x="77.1143" y="836.8369">compile.findFunctionInSrcDirs function, binaryModel.BinFile.SrcDirs</text><polygon fill="#AAAAAA" points="242.8411,869.667,316.1296,869.667,328.1296,881.667,316.1296,893.667,242.8411,893.667,230.8411,881.667,242.8411,869.667" style="stroke:#181818;stroke-width:0.5;"/><text fill="#000000" font-family="sans-serif" font-size="11" lengthAdjust="spacing" textLength="73.2886" x="242.8411" y="885.4751">file not found</text><text fill="#000000" font-family="sans-serif" font-size="11" lengthAdjust="spacing" textLength="27.0649" x="328.1296" y="879.0728">error</text><ellipse cx="377.1946" cy="881.667" fill="none" rx="11" ry="11" style="stroke:#222222;stroke-width:1;"/><ellipse cx="377.1946" cy="881.667" fill="#222222" rx="6" ry="6" style="stroke:#222222;stroke-width:1;"/><rect fill="#F1F1F1" height="33.9688" rx="12.5" ry="12.5" style="stroke:#181818;stroke-width:0.5;" width="163.0625" x="197.9541" y="915.6982"/><text fill="#000000" font-family="sans-serif" font-size="12" lengthAdjust="spacing" textLength="143.0625" x="207.9541" y="936.8369">register function src file</text><rect fill="#F1F1F1" height="33.9688" rx="12.5" ry="12.5" style="stroke:#181818;stroke-width:0.5;" width="144.2422" x="207.3643" y="969.667"/><text fill="#000000" font-family="sans-serif" font-size="12" lengthAdjust="spacing" textLength="124.2422" x="217.3643" y="990.8057">register _.sh if exists</text><rect fill="#F1F1F1" height="33.9688" rx="12.5" ry="12.5" style="stroke:#181818;stroke-width:0.5;" width="162.9043" x="198.0332" y="1023.6357"/><text fill="#000000" font-family="sans-serif" font-size="12" lengthAdjust="spacing" textLength="142.9043" x="208.0332" y="1044.7744">register ZZZ.sh if exists</text><polygon fill="#AAAAAA" points="257.0181,767.2959,301.9526,767.2959,313.9526,779.2959,301.9526,791.2959,257.0181,791.2959,245.0181,779.2959,257.0181,767.2959" style="stroke:#181818;stroke-width:0.5;"/><text fill="#000000" font-family="sans-serif" font-size="11" lengthAdjust="spacing" textLength="116.5366" x="283.4854" y="801.5063">not already retrieved</text><text fill="#000000" font-family="sans-serif" font-size="11" lengthAdjust="spacing" textLength="44.9346" x="257.0181" y="783.104">function</text><polygon fill="#AAAAAA" points="279.4854,1077.6045,291.4854,1089.6045,279.4854,1101.6045,267.4854,1089.6045,279.4854,1077.6045" style="stroke:#181818;stroke-width:0.5;"/><rect fill="#F1F1F1" height="33.9688" rx="12.5" ry="12.5" style="stroke:#181818;stroke-width:0.5;" width="201.5645" x="178.7031" y="713.3271"/><text fill="#000000" font-family="sans-serif" font-size="12" lengthAdjust="spacing" textLength="181.5645" x="188.7031" y="734.4658">each function of functionsMap</text><polygon fill="#AAAAAA" points="237.9829,1121.6045,320.9878,1121.6045,332.9878,1133.6045,320.9878,1145.6045,237.9829,1145.6045,225.9829,1133.6045,237.9829,1121.6045" style="stroke:#181818;stroke-width:0.5;"/><text fill="#000000" font-family="sans-serif" font-size="11" lengthAdjust="spacing" textLength="83.0049" x="237.9829" y="1137.4126">more function?</text><rect fill="#87CEFA" height="82.2656" style="stroke:#000000;stroke-width:1.5;" width="751.3984" x="100.7256" y="1167.6045"/><path d="M371.7695,1167.6045 L371.7695,1176.9014 L361.7695,1186.9014 L100.7256,1186.9014" fill="none" style="stroke:#000000;stroke-width:1.5;"/><text fill="#000000" font-family="sans-serif" font-size="14" lengthAdjust="spacing" textLength="261.0439" x="103.7256" y="1181.5996">compiler.retrieveAllFunctionsContent</text><path d="M468.2451,1208.3193 L468.2451,1216.8857 L448.2451,1220.8857 L468.2451,1224.8857 L468.2451,1233.4521 A0,0 0 0 0 468.2451,1233.4521 L842.124,1233.4521 A0,0 0 0 0 842.124,1233.4521 L842.124,1218.3193 L832.124,1208.3193 L468.2451,1208.3193 A0,0 0 0 0 468.2451,1208.3193" fill="#FEFFDD" style="stroke:#181818;stroke-width:0.5;"/><path d="M832.124,1208.3193 L832.124,1218.3193 L842.124,1218.3193 L832.124,1208.3193" fill="#FEFFDD" style="stroke:#181818;stroke-width:0.5;"/><text fill="#000000" font-family="sans-serif" font-size="13" lengthAdjust="spacing" textLength="352.8789" x="474.2451" y="1225.3862">for each function retrieve content of each src file path</text><rect fill="#F1F1F1" height="33.9688" rx="12.5" ry="12.5" style="stroke:#181818;stroke-width:0.5;" width="337.5195" x="110.7256" y="1203.9014"/><text fill="#000000" font-family="sans-serif" font-size="12" lengthAdjust="spacing" textLength="317.5195" x="120.7256" y="1225.04">compiler.retrieveAllFunctionsContent &amp;functionsMap</text><rect fill="#87CEFA" height="344.5547" style="stroke:#000000;stroke-width:1.5;" width="568.9321" x="58.4656" y="1259.8701"/><path d="M262.3875,1259.8701 L262.3875,1269.167 L252.3875,1279.167 L58.4656,1279.167" fill="none" style="stroke:#000000;stroke-width:1.5;"/><text fill="#000000" font-family="sans-serif" font-size="14" lengthAdjust="spacing" textLength="193.9219" x="61.4656" y="1273.8652">Compiler::Require::requires</text><rect fill="#F1F1F1" height="33.9688" rx="12.5" ry="12.5" style="stroke:#181818;stroke-width:0.5;" width="222.8984" x="168.0361" y="1296.167"/><text fill="#000000" font-family="sans-serif" font-size="12" lengthAdjust="spacing" textLength="202.8984" x="178.0361" y="1317.3057">Compiler::Require::filter scriptFile</text><rect fill="#F1F1F1" height="61.9063" rx="12.5" ry="12.5" style="stroke:#181818;stroke-width:0.5;" width="278.9668" x="140.002" y="1410.5498"/><text fill="#000000" font-family="sans-serif" font-size="12" lengthAdjust="spacing" textLength="258.9668" x="150.002" y="1431.6885">Compiler::Require::parse $requireDirective</text><text fill="#000000" font-family="sans-serif" font-size="12" lengthAdjust="spacing" textLength="7.6289" x="150.002" y="1445.6572">&#160;&#160;</text><text fill="#000000" font-family="sans-serif" font-size="12" lengthAdjust="spacing" text-decoration="wavy underline" textLength="238.6875" x="157.6309" y="1445.6572">uses Compiler::Require::assertInterface</text><text fill="#000000" font-family="sans-serif" font-size="12" lengthAdjust="spacing" textLength="3.8145" x="150.002" y="1459.626">&#160;</text><polygon fill="#AAAAAA" points="104.4656,1492.4561,454.5051,1492.4561,466.5051,1504.4561,454.5051,1516.4561,104.4656,1516.4561,92.4656,1504.4561,104.4656,1492.4561" style="stroke:#181818;stroke-width:0.5;"/><text fill="#000000" font-family="sans-serif" font-size="11" lengthAdjust="spacing" textLength="350.0396" x="104.4656" y="1508.2642">implement directive can't be parsed or function does not exist?</text><text fill="#FF0000" font-family="sans-serif" font-size="11" lengthAdjust="spacing" textLength="87.8926" x="466.5051" y="1501.8618">invalid directive</text><ellipse cx="574.3977" cy="1504.4561" fill="none" rx="10" ry="10" style="stroke:#FF0000;stroke-width:1.5;"/><line style="stroke:#FF0000;stroke-width:2.5;" x1="568.2105" x2="580.5849" y1="1498.2689" y2="1510.6432"/><line style="stroke:#FF0000;stroke-width:2.5;" x1="580.5849" x2="568.2105" y1="1498.2689" y2="1510.6432"/><rect fill="#F1F1F1" height="33.9688" rx="12.5" ry="12.5" style="stroke:#181818;stroke-width:0.5;" width="170.3164" x="194.3271" y="1536.4561"/><text fill="#000000" font-family="sans-serif" font-size="12" lengthAdjust="spacing" textLength="150.3164" x="204.3271" y="1557.5947">Compiler::Require::parse</text><polygon fill="#AAAAAA" points="232.0156,1354.8394,326.9551,1354.8394,338.9551,1366.8394,326.9551,1378.8394,232.0156,1378.8394,220.0156,1366.8394,232.0156,1354.8394" style="stroke:#181818;stroke-width:0.5;"/><text fill="#008000" font-family="sans-serif" font-size="11" lengthAdjust="spacing" textLength="126.1348" x="283.4854" y="1389.0498">require directive found</text><text fill="#000000" font-family="sans-serif" font-size="11" lengthAdjust="spacing" textLength="94.9395" x="232.0156" y="1370.6475">requireDirective?</text><text fill="#000000" font-family="sans-serif" font-size="11" lengthAdjust="spacing" textLength="89.0205" x="111.4443" y="1351.4404">no more require</text><text fill="#000000" font-family="sans-serif" font-size="11" lengthAdjust="spacing" textLength="108.5713" x="111.4443" y="1364.2451">directive to process</text><rect fill="#F1F1F1" height="47.9375" rx="12.5" ry="12.5" style="stroke:#181818;stroke-width:0.5;" width="282.6758" x="138.1475" y="1624.4248"/><text fill="#000000" font-family="sans-serif" font-size="12" lengthAdjust="spacing" textLength="226.6172" x="148.1475" y="1645.5635">import functions from 2 previous task</text><text fill="#000000" font-family="sans-serif" font-size="12" lengthAdjust="spacing" textLength="262.6758" x="148.1475" y="1659.5322">and inject them before # FUNCTIONS token</text><rect fill="#87CEFA" height="146.9609" style="stroke:#000000;stroke-width:1.5;" width="651.0146" x="112.749" y="1738.103"/><path d="M316.6709,1738.103 L316.6709,1747.3999 L306.6709,1757.3999 L112.749,1757.3999" fill="none" style="stroke:#000000;stroke-width:1.5;"/><text fill="#000000" font-family="sans-serif" font-size="14" lengthAdjust="spacing" textLength="193.9219" x="115.749" y="1752.0981">Compiler::Require::requires</text><path d="M446.2217,1777.3999 L446.2217,1863.064 L743.7637,1863.064 L743.7637,1787.3999 L733.7637,1777.3999 L446.2217,1777.3999" fill="#FEFFDD" style="stroke:#181818;stroke-width:0.5;"/><path d="M733.7637,1777.3999 L733.7637,1787.3999 L743.7637,1787.3999 L733.7637,1777.3999" fill="#FEFFDD" style="stroke:#181818;stroke-width:0.5;"/><text fill="#000000" font-family="sans-serif" font-size="13" font-weight="bold" lengthAdjust="spacing" textLength="100.166" x="452.2217" y="1794.4668">second phase</text><text fill="#000000" font-family="sans-serif" font-size="13" lengthAdjust="spacing" textLength="246.708" x="452.2217" y="1809.5996">call again Compiler::Require::requires</text><text fill="#000000" font-family="sans-serif" font-size="13" lengthAdjust="spacing" textLength="276.542" x="452.2217" y="1824.7324">to get final list of requires in reverse order</text><text fill="#000000" font-family="sans-serif" font-size="13" lengthAdjust="spacing" textLength="272.6699" x="452.2217" y="1839.8652">to add the calls to those require functions</text><text fill="#000000" font-family="sans-serif" font-size="13" lengthAdjust="spacing" textLength="125.252" x="452.2217" y="1854.998">just after the token</text><text fill="#000000" font-family="sans-serif" font-size="13" lengthAdjust="spacing" text-decoration="wavy underline" textLength="81.3516" x="581.606" y="1854.998"># REQUIRES</text><rect fill="#F1F1F1" height="33.9688" rx="12.5" ry="12.5" style="stroke:#181818;stroke-width:0.5;" width="313.4727" x="122.749" y="1803.2476"/><text fill="#000000" font-family="sans-serif" font-size="12" lengthAdjust="spacing" textLength="293.4727" x="132.749" y="1824.3862">File::insertFileAfterToken requires "# REQUIRES"</text><rect fill="#FFC0CB" height="190.2031" style="stroke:#000000;stroke-width:1.5;" width="334.9844" x="111.9932" y="1895.064"/><path d="M216.8281,1895.064 L216.8281,1904.3608 L206.8281,1914.3608 L111.9932,1914.3608" fill="none" style="stroke:#000000;stroke-width:1.5;"/><text fill="#000000" font-family="sans-serif" font-size="14" lengthAdjust="spacing" textLength="94.835" x="114.9932" y="1909.0591">compilerEnds</text><rect fill="#F1F1F1" height="33.9688" rx="12.5" ry="12.5" style="stroke:#181818;stroke-width:0.5;" width="312.0605" x="123.4551" y="1931.3608"/><text fill="#000000" font-family="sans-serif" font-size="12" lengthAdjust="spacing" textLength="292.0605" x="133.4551" y="1952.4995">Compiler::Implement::mergeInterfacesFunctions</text><rect fill="#F1F1F1" height="33.9688" rx="12.5" ry="12.5" style="stroke:#181818;stroke-width:0.5;" width="314.9844" x="121.9932" y="1985.3296"/><text fill="#000000" font-family="sans-serif" font-size="12" lengthAdjust="spacing" textLength="294.9844" x="131.9932" y="2006.4683">Compiler::Implement::validateInterfaceFunctions</text><rect fill="#F1F1F1" height="33.9688" rx="12.5" ry="12.5" style="stroke:#181818;stroke-width:0.5;" width="99.7109" x="229.6299" y="2039.2983"/><text fill="#000000" font-family="sans-serif" font-size="12" lengthAdjust="spacing" textLength="79.7109" x="239.6299" y="2060.437">Output result</text><ellipse cx="279.4854" cy="2115.2671" fill="none" rx="10" ry="10" style="stroke:#FF0000;stroke-width:1.5;"/><line style="stroke:#FF0000;stroke-width:2.5;" x1="273.2982" x2="285.6725" y1="2109.0799" y2="2121.4543"/><line style="stroke:#FF0000;stroke-width:2.5;" x1="285.6725" x2="273.2982" y1="2109.0799" y2="2121.4543"/><line style="stroke:#181818;stroke-width:1;" x1="279.4854" x2="279.4854" y1="103.9375" y2="123.9375"/><polygon fill="#181818" points="275.4854,113.9375,279.4854,123.9375,283.4854,113.9375,279.4854,117.9375" style="stroke:#181818;stroke-width:1;"/><line style="stroke:#181818;stroke-width:1;" x1="279.4854" x2="279.4854" y1="157.9063" y2="177.9063"/><polygon fill="#181818" points="275.4854,167.9063,279.4854,177.9063,283.4854,167.9063,279.4854,171.9063" style="stroke:#181818;stroke-width:1;"/><line style="stroke:#181818;stroke-width:1;" x1="279.4854" x2="279.4854" y1="255.875" y2="313.8823"/><polygon fill="#181818" points="275.4854,303.8823,279.4854,313.8823,283.4854,303.8823,279.4854,307.8823" style="stroke:#181818;stroke-width:1;"/><line style="stroke:#181818;stroke-width:1;" x1="303.4854" x2="341.5503" y1="243.875" y2="243.875"/><polygon fill="#181818" points="331.5503,239.875,341.5503,243.875,331.5503,247.875,335.5503,243.875" style="stroke:#181818;stroke-width:1;"/><line style="stroke:#181818;stroke-width:1;" x1="279.4854" x2="279.4854" y1="211.875" y2="231.875"/><polygon fill="#181818" points="275.4854,221.875,279.4854,231.875,283.4854,221.875,279.4854,225.875" style="stroke:#181818;stroke-width:1;"/><line style="stroke:#181818;stroke-width:1;" x1="279.4854" x2="279.4854" y1="347.8511" y2="367.8511"/><polygon fill="#181818" points="275.4854,357.8511,279.4854,367.8511,283.4854,357.8511,279.4854,361.8511" style="stroke:#181818;stroke-width:1;"/><line style="stroke:#181818;stroke-width:1;" x1="279.4854" x2="279.4854" y1="401.8198" y2="421.8198"/><polygon fill="#181818" points="275.4854,411.8198,279.4854,421.8198,283.4854,411.8198,279.4854,415.8198" style="stroke:#181818;stroke-width:1;"/><line style="stroke:#181818;stroke-width:1;" x1="279.4854" x2="279.4854" y1="502.937" y2="572.9443"/><polygon fill="#181818" points="275.4854,562.9443,279.4854,572.9443,283.4854,562.9443,279.4854,566.9443" style="stroke:#181818;stroke-width:1;"/><line style="stroke:#181818;stroke-width:1;" x1="303.4854" x2="341.5503" y1="490.937" y2="490.937"/><polygon fill="#181818" points="331.5503,486.937,341.5503,490.937,331.5503,494.937,335.5503,490.937" style="stroke:#181818;stroke-width:1;"/><line style="stroke:#181818;stroke-width:1;" x1="279.4854" x2="279.4854" y1="455.7886" y2="478.937"/><polygon fill="#181818" points="275.4854,468.937,279.4854,478.937,283.4854,468.937,279.4854,472.937" style="stroke:#181818;stroke-width:1;"/><line style="stroke:#181818;stroke-width:1;" x1="279.4854" x2="279.4854" y1="893.667" y2="915.6982"/><polygon fill="#181818" points="275.4854,905.6982,279.4854,915.6982,283.4854,905.6982,279.4854,909.6982" style="stroke:#181818;stroke-width:1;"/><line style="stroke:#181818;stroke-width:1;" x1="328.1296" x2="366.1946" y1="881.667" y2="881.667"/><polygon fill="#181818" points="356.1946,877.667,366.1946,881.667,356.1946,885.667,360.1946,881.667" style="stroke:#181818;stroke-width:1;"/><line style="stroke:#181818;stroke-width:1;" x1="279.4854" x2="279.4854" y1="849.667" y2="869.667"/><polygon fill="#181818" points="275.4854,859.667,279.4854,869.667,283.4854,859.667,279.4854,863.667" style="stroke:#181818;stroke-width:1;"/><line style="stroke:#181818;stroke-width:1;" x1="279.4854" x2="279.4854" y1="949.667" y2="969.667"/><polygon fill="#181818" points="275.4854,959.667,279.4854,969.667,283.4854,959.667,279.4854,963.667" style="stroke:#181818;stroke-width:1;"/><line style="stroke:#181818;stroke-width:1;" x1="279.4854" x2="279.4854" y1="1003.6357" y2="1023.6357"/><polygon fill="#181818" points="275.4854,1013.6357,279.4854,1023.6357,283.4854,1013.6357,279.4854,1017.6357" style="stroke:#181818;stroke-width:1;"/><line style="stroke:#181818;stroke-width:1;" x1="279.4854" x2="279.4854" y1="791.2959" y2="815.6982"/><polygon fill="#181818" points="275.4854,805.6982,279.4854,815.6982,283.4854,805.6982,279.4854,809.6982" style="stroke:#181818;stroke-width:1;"/><line style="stroke:#181818;stroke-width:1;" x1="313.9526" x2="501.8564" y1="779.2959" y2="779.2959"/><polygon fill="#181818" points="497.8564,903.667,501.8564,913.667,505.8564,903.667,501.8564,907.667" style="stroke:#181818;stroke-width:1;"/><line style="stroke:#181818;stroke-width:1;" x1="501.8564" x2="501.8564" y1="779.2959" y2="1089.6045"/><line style="stroke:#181818;stroke-width:1;" x1="501.8564" x2="291.4854" y1="1089.6045" y2="1089.6045"/><polygon fill="#181818" points="301.4854,1085.6045,291.4854,1089.6045,301.4854,1093.6045,297.4854,1089.6045" style="stroke:#181818;stroke-width:1;"/><line style="stroke:#181818;stroke-width:1;" x1="279.4854" x2="279.4854" y1="1057.6045" y2="1077.6045"/><polygon fill="#181818" points="275.4854,1067.6045,279.4854,1077.6045,283.4854,1067.6045,279.4854,1071.6045" style="stroke:#181818;stroke-width:1;"/><line style="stroke:#181818;stroke-width:1;" x1="279.4854" x2="279.4854" y1="747.2959" y2="767.2959"/><polygon fill="#181818" points="275.4854,757.2959,279.4854,767.2959,283.4854,757.2959,279.4854,761.2959" style="stroke:#181818;stroke-width:1;"/><line style="stroke:#181818;stroke-width:1;" x1="332.9878" x2="525.8564" y1="1133.6045" y2="1133.6045"/><polygon fill="#181818" points="521.8564,921.1748,525.8564,911.1748,529.8564,921.1748,525.8564,917.1748" style="stroke:#181818;stroke-width:1;"/><line style="stroke:#181818;stroke-width:1;" x1="525.8564" x2="525.8564" y1="730.3115" y2="1133.6045"/><line style="stroke:#181818;stroke-width:1;" x1="525.8564" x2="380.2676" y1="730.3115" y2="730.3115"/><polygon fill="#181818" points="390.2676,726.3115,380.2676,730.3115,390.2676,734.3115,386.2676,730.3115" style="stroke:#181818;stroke-width:1;"/><line style="stroke:#181818;stroke-width:1;" x1="279.4854" x2="279.4854" y1="1101.6045" y2="1121.6045"/><polygon fill="#181818" points="275.4854,1111.6045,279.4854,1121.6045,283.4854,1111.6045,279.4854,1115.6045" style="stroke:#181818;stroke-width:1;"/><line style="stroke:#181818;stroke-width:1;" x1="279.4854" x2="279.4854" y1="690.1787" y2="713.3271"/><polygon fill="#181818" points="275.4854,703.3271,279.4854,713.3271,283.4854,703.3271,279.4854,707.3271" style="stroke:#181818;stroke-width:1;"/><line style="stroke:#181818;stroke-width:1;" x1="279.4854" x2="279.4854" y1="606.9131" y2="656.21"/><polygon fill="#181818" points="275.4854,646.21,279.4854,656.21,283.4854,646.21,279.4854,650.21" style="stroke:#181818;stroke-width:1;"/><line style="stroke:#181818;stroke-width:1;" x1="279.4854" x2="279.4854" y1="1145.6045" y2="1203.9014"/><polygon fill="#181818" points="275.4854,1193.9014,279.4854,1203.9014,283.4854,1193.9014,279.4854,1197.9014" style="stroke:#181818;stroke-width:1;"/><line style="stroke:#181818;stroke-width:1;" x1="279.4854" x2="279.4854" y1="1516.4561" y2="1536.4561"/><polygon fill="#181818" points="275.4854,1526.4561,279.4854,1536.4561,283.4854,1526.4561,279.4854,1530.4561" style="stroke:#181818;stroke-width:1;"/><line style="stroke:#FF0000;stroke-width:1;" x1="466.5051" x2="564.3977" y1="1504.4561" y2="1504.4561"/><polygon fill="#FF0000" points="554.3977,1500.4561,564.3977,1504.4561,554.3977,1508.4561,558.3977,1504.4561" style="stroke:#FF0000;stroke-width:1;"/><line style="stroke:#181818;stroke-width:1;" x1="279.4854" x2="279.4854" y1="1472.4561" y2="1492.4561"/><polygon fill="#181818" points="275.4854,1482.4561,279.4854,1492.4561,283.4854,1482.4561,279.4854,1486.4561" style="stroke:#181818;stroke-width:1;"/><line style="stroke:#008000;stroke-width:1;" x1="279.4854" x2="279.4854" y1="1378.8394" y2="1410.5498"/><polygon fill="#008000" points="275.4854,1400.5498,279.4854,1410.5498,283.4854,1400.5498,279.4854,1404.5498" style="stroke:#008000;stroke-width:1;"/><line style="stroke:#181818;stroke-width:1;" x1="279.4854" x2="279.4854" y1="1570.4248" y2="1580.4248"/><line style="stroke:#181818;stroke-width:1;" x1="279.4854" x2="608.3977" y1="1580.4248" y2="1580.4248"/><polygon fill="#181818" points="604.3977,1506.085,608.3977,1496.085,612.3977,1506.085,608.3977,1502.085" style="stroke:#181818;stroke-width:1;"/><line style="stroke:#181818;stroke-width:1;" x1="608.3977" x2="608.3977" y1="1366.8394" y2="1580.4248"/><line style="stroke:#181818;stroke-width:1;" x1="608.3977" x2="338.9551" y1="1366.8394" y2="1366.8394"/><polygon fill="#181818" points="348.9551,1362.8394,338.9551,1366.8394,348.9551,1370.8394,344.9551,1366.8394" style="stroke:#181818;stroke-width:1;"/><line style="stroke:#181818;stroke-width:1;" x1="220.0156" x2="80.4656" y1="1366.8394" y2="1366.8394"/><polygon fill="#181818" points="76.4656,1492.085,80.4656,1502.085,84.4656,1492.085,80.4656,1496.085" style="stroke:#181818;stroke-width:1;"/><line style="stroke:#181818;stroke-width:1;" x1="80.4656" x2="80.4656" y1="1366.8394" y2="1592.4248"/><line style="stroke:#181818;stroke-width:1;" x1="80.4656" x2="279.4854" y1="1592.4248" y2="1592.4248"/><line style="stroke:#181818;stroke-width:1;" x1="279.4854" x2="279.4854" y1="1592.4248" y2="1624.4248"/><polygon fill="#181818" points="275.4854,1614.4248,279.4854,1624.4248,283.4854,1614.4248,279.4854,1618.4248" style="stroke:#181818;stroke-width:1;"/><line style="stroke:#181818;stroke-width:1;" x1="279.4854" x2="279.4854" y1="1330.1357" y2="1354.8394"/><polygon fill="#181818" points="275.4854,1344.8394,279.4854,1354.8394,283.4854,1344.8394,279.4854,1348.8394" style="stroke:#181818;stroke-width:1;"/><line style="stroke:#181818;stroke-width:1;" x1="279.4854" x2="279.4854" y1="1237.8701" y2="1296.167"/><polygon fill="#181818" points="275.4854,1286.167,279.4854,1296.167,283.4854,1286.167,279.4854,1290.167" style="stroke:#181818;stroke-width:1;"/><line style="stroke:#008000;stroke-width:1.5;stroke-dasharray:7,7;" x1="279.4854" x2="279.4854" y1="1672.3623" y2="1803.2476"/><polygon fill="#008000" points="275.4854,1793.2476,279.4854,1803.2476,283.4854,1793.2476,279.4854,1797.2476" style="stroke:#008000;stroke-width:1;"/><text fill="#000000" font-family="sans-serif" font-size="11" lengthAdjust="spacing" textLength="47.8779" x="283.4854" y="1705.667">compiler</text><text fill="#000000" font-family="sans-serif" font-size="11" lengthAdjust="spacing" textLength="42.5122" x="283.4854" y="1718.4717">process</text><text fill="#000000" font-family="sans-serif" font-size="11" lengthAdjust="spacing" textLength="53.5605" x="283.4854" y="1731.2764">continues</text><text fill="#000000" font-family="sans-serif" font-size="11" lengthAdjust="spacing" textLength="3.4966" x="283.4854" y="1744.0811">&#160;</text><line style="stroke:#181818;stroke-width:1;" x1="279.4854" x2="279.4854" y1="1965.3296" y2="1985.3296"/><polygon fill="#181818" points="275.4854,1975.3296,279.4854,1985.3296,283.4854,1975.3296,279.4854,1979.3296" style="stroke:#181818;stroke-width:1;"/><line style="stroke:#181818;stroke-width:1;" x1="279.4854" x2="279.4854" y1="2019.2983" y2="2039.2983"/><polygon fill="#181818" points="275.4854,2029.2983,279.4854,2039.2983,283.4854,2029.2983,279.4854,2033.2983" style="stroke:#181818;stroke-width:1;"/><line style="stroke:#181818;stroke-width:1;" x1="279.4854" x2="279.4854" y1="1837.2163" y2="1931.3608"/><polygon fill="#181818" points="275.4854,1921.3608,279.4854,1931.3608,283.4854,1921.3608,279.4854,1925.3608" style="stroke:#181818;stroke-width:1;"/><line style="stroke:#181818;stroke-width:1;" x1="279.4854" x2="279.4854" y1="2073.2671" y2="2105.2671"/><polygon fill="#181818" points="275.4854,2095.2671,279.4854,2105.2671,283.4854,2095.2671,279.4854,2099.2671" style="stroke:#181818;stroke-width:1;"/><?plantuml-src bLPjRzis4FwkNt68XpK9MdjkdQQHXnHf6WS1qdQBam_BDWoqTB8PIwHAKcwD8VdjkwFrPiTPMt-YgNjvxhddI3hfKeH8PxbCqO18fzf8Dyi2EvSg5qPay6y0y0ncpkKsxFMczBMOTCcZbwT2kI9BcyKarPFUuAZVFuYJw30Uz0zU7xtkuy5aS2JUzADVZYQ3mq4inE7HcvUlUjP4FOMkPtLX8aoqcM8JohfbYhsHqTcuGdAjnxpPlHCBqRdi3mu8c8YSN4YtV2z5fbNyJaJpgT65YazrgWrqJlolPNXMVp8O1_T1O9qmBWZ2aWEOI2NCyeEECVr3PEc8zeP1q1ddHghfkK5KOSOVkvTQnEyQuoSSPGAxUhu7ReOATbisUm6c5c4NZT5cZn1Qf_C0LIoJ8A1wdNHIAzYfUjCzHuL6E3mbxntg2hcieTfgs4OrP9Sm9TZd-XepejhXQizGMZGRkqex12EdCqT_00fBcThX81PE-4zQfKlMK2PKR86n0tMJIuPCPwWu06NWW1nudPA8Od7v6soKV7X7OkH-EoUdgqL9HqC1VdM6EdwZvES2HwGT_ABDV5IeY0DO-3cfbXz4_XmOWwzvMmw3paXSu9c8PbM4tuIRxK3dajaPpvVlqWBzdBGnFEMtcRn5QPVqnBhfZatqNXexz24t6W6UNAIeK0M2AfVdF2dI56Yu864zvvIoz7Dc2Kx351qDkjNmJzVEW7e6jxUtl6Hxo-t1hz8wwxsgll7QO8x2GRYUMoVGBcXO9kCkL_jLhoaIPJOeucKDETuh7HhkkebKSKNPXIh9gBDy1sKr06Q0ioPy9bGmMY9R_KgfhNuhmTMO34w933eRwu8hQeTRZ3obDOFRB4gk7zaqQKkQlymO_6wc3TQvtpBg-syfzIHDQwcVQkLe0hzNh5jSr_NwuvACoZ2a4s_nM9cDngYqzThA0JTXU8MV2sam92RzmZukoGTREnEtk5DgReEDZCpTg6vZoNOPd9I4V67WspsG5dP_ZVZE2ASSzBYqWRWoAjLLKl7Ypuwt-_l5SRdpBKXKBvrzFstchiNpy51O6imjdi9QDEw223Q9YF3XeVHf3w6aCntv56u1ZeHwvc32FQ3KCUYMl6DDkNXcl3xN2Q0xyrYgXKXbt4HRZLMDbkediwPwtzzAv7J8jmqtY6gFtkElJr8th5HKDb5fy5DJ4lgNQWgduoytEa9hwqaAYI3DLrPzEoJqwe2NP8WBgGiBJjWvFo7ef9JgZY9nmHdHbt2M3enkFfvUNtpwEARmSrH3lgqg-CzZOMUUZlgL5PG80fuCgGgqmN3jUliXqMyCu_w-HOeRGpuJ5lVtQIiIT1-8gP0A_YSo6PPt0vs-8eMKciypMtsdqcczG9QgDlHSM3c8EFQN3YUnlE5csjRKDwIIzLr14KN2qySUdYlITWUkpdw_kRWw6tlvDeT1oDCPXbAnndbzmhxNtgr6jTEuxmoVU2RGcu-9owMQUy9QGhgeXYCCCwG7Q3rAjZu6Xqzw-3cWvrBjjExpgN1vuGYgBLBdiL5j_m40?></g></svg>
