<svg xmlns="http://www.w3.org/2000/svg" xmlns:xlink="http://www.w3.org/1999/xlink" contentStyleType="text/css" data-diagram-type="ACTIVITY" height="2099px" preserveAspectRatio="none" style="width:896px;height:2099px;background:#FFFFFF;" version="1.1" viewBox="0 0 896 2099" width="896px" zoomAndPan="magnify"><title>compiler algorithm</title><defs/><g><g class="title" data-source-line="1"><text fill="#000000" font-family="sans-serif" font-size="14" font-weight="bold" lengthAdjust="spacing" textLength="150.2334" x="371.6023" y="32.9951">compiler algorithm</text></g><ellipse cx="279.4854" cy="57.2969" fill="#222222" rx="10" ry="10" style="stroke:#222222;stroke-width:1;"/><rect fill="#F1F1F1" height="33.9688" rx="12.5" ry="12.5" style="stroke:#181818;stroke-width:0.5;" width="195.7461" x="181.6123" y="87.2969"/><text fill="#000000" font-family="sans-serif" font-size="12" lengthAdjust="spacing" textLength="175.7461" x="191.6123" y="108.4355">compile binaryModelYamlFile</text><rect fill="#00FF7F" height="33.9688" rx="12.5" ry="12.5" style="stroke:#181818;stroke-width:0.5;" width="293.2168" x="132.877" y="141.2656"/><text fill="#000000" font-family="sans-serif" font-size="12" lengthAdjust="spacing" textLength="273.2168" x="142.877" y="162.4043">model.LoadBinaryModel binaryModelYamlFile</text><polygon fill="#AAAAAA" points="267.4854,195.2344,291.4854,195.2344,303.4854,207.2344,291.4854,219.2344,267.4854,219.2344,255.4854,207.2344,267.4854,195.2344" style="stroke:#181818;stroke-width:0.5;"/><text fill="#000000" font-family="sans-serif" font-size="11" lengthAdjust="spacing" textLength="67.8101" x="283.4854" y="229.4448">binaryModel</text><text fill="#000000" font-family="sans-serif" font-size="11" lengthAdjust="spacing" textLength="13.1001" x="272.9353" y="211.0425">ok</text><text fill="#000000" font-family="sans-serif" font-size="11" lengthAdjust="spacing" textLength="27.0649" x="303.4854" y="204.6401">error</text><ellipse cx="352.5503" cy="207.2344" fill="none" rx="11" ry="11" style="stroke:#222222;stroke-width:1;"/><ellipse cx="352.5503" cy="207.2344" fill="#222222" rx="6" ry="6" style="stroke:#222222;stroke-width:1;"/><rect fill="none" height="249.062" style="stroke:#000000;stroke-width:1.5;" width="488.2485" x="149.1855" y="240.9448"/><path d="M325.7979,240.9448 L325.7979,250.2417 L315.7979,260.2417 L149.1855,260.2417" fill="none" style="stroke:#000000;stroke-width:1.5;"/><text fill="#000000" font-family="sans-serif" font-size="14" lengthAdjust="spacing" textLength="166.6123" x="152.1855" y="254.9399">compiler.GenerateCode</text><rect fill="#00FF7F" height="33.9688" rx="12.5" ry="12.5" style="stroke:#181818;stroke-width:0.5;" width="240.5996" x="159.1855" y="277.2417"/><text fill="#000000" font-family="sans-serif" font-size="12" lengthAdjust="spacing" textLength="220.5996" x="169.1855" y="298.3804">compiler.GenerateCode binaryModel</text><rect fill="#F1F1F1" height="33.9688" rx="12.5" ry="12.5" style="stroke:#181818;stroke-width:0.5;" width="119.082" x="219.9443" y="331.2104"/><text fill="#000000" font-family="sans-serif" font-size="12" lengthAdjust="spacing" textLength="99.082" x="229.9443" y="352.3491">loadGoTemplate</text><path d="M366.1309,382.0308 L366.1309,398.1636 L346.1309,402.1636 L366.1309,406.1636 L366.1309,422.2964 A0,0 0 0 0 366.1309,422.2964 L627.4341,422.2964 A0,0 0 0 0 627.4341,422.2964 L627.4341,392.0308 L617.4341,382.0308 L366.1309,382.0308 A0,0 0 0 0 366.1309,382.0308" fill="#FEFFDD" style="stroke:#181818;stroke-width:0.5;"/><path d="M617.4341,382.0308 L617.4341,392.0308 L627.4341,392.0308 L617.4341,382.0308" fill="#FEFFDD" style="stroke:#181818;stroke-width:0.5;"/><text fill="#000000" font-family="sans-serif" font-size="13" lengthAdjust="spacing" textLength="152.8008" x="372.1309" y="399.0977">using binaryModel data</text><text fill="#000000" font-family="sans-serif" font-size="13" lengthAdjust="spacing" textLength="240.3032" x="372.1309" y="414.2305">only commands part for the moment</text><rect fill="#F1F1F1" height="33.9688" rx="12.5" ry="12.5" style="stroke:#181818;stroke-width:0.5;" width="133.291" x="212.8398" y="385.1792"/><text fill="#000000" font-family="sans-serif" font-size="12" lengthAdjust="spacing" textLength="113.291" x="222.8398" y="406.3179">renderGoTemplate</text><polygon fill="#AAAAAA" points="267.4854,442.2964,291.4854,442.2964,303.4854,454.2964,291.4854,466.2964,267.4854,466.2964,255.4854,454.2964,267.4854,442.2964" style="stroke:#181818;stroke-width:0.5;"/><text fill="#000000" font-family="sans-serif" font-size="11" lengthAdjust="spacing" textLength="26.5278" x="283.4854" y="476.5068">code</text><text fill="#000000" font-family="sans-serif" font-size="11" lengthAdjust="spacing" textLength="13.1001" x="272.9353" y="458.1045">ok</text><text fill="#000000" font-family="sans-serif" font-size="11" lengthAdjust="spacing" textLength="27.0649" x="303.4854" y="451.7021">error</text><ellipse cx="352.5503" cy="454.2964" fill="none" rx="11" ry="11" style="stroke:#222222;stroke-width:1;"/><ellipse cx="352.5503" cy="454.2964" fill="#222222" rx="6" ry="6" style="stroke:#222222;stroke-width:1;"/><rect fill="none" height="1147.7148" style="stroke:#000000;stroke-width:1.5;" width="874.438" x="11" y="500.0068"/><path d="M143.6436,500.0068 L143.6436,509.3037 L133.6436,519.3037 L11,519.3037" fill="none" style="stroke:#000000;stroke-width:1.5;"/><text fill="#000000" font-family="sans-serif" font-size="14" lengthAdjust="spacing" textLength="122.6436" x="14" y="514.002">compiler.Compile</text><rect fill="#00FF7F" height="33.9688" rx="12.5" ry="12.5" style="stroke:#181818;stroke-width:0.5;" width="416.7383" x="71.1162" y="536.3037"/><text fill="#000000" font-family="sans-serif" font-size="12" lengthAdjust="spacing" textLength="396.7383" x="81.1162" y="557.4424">compiler.extractUniqueFrameworkFunctions &amp;functionsMap, code</text><rect fill="#87CEFA" height="540.6914" style="stroke:#000000;stroke-width:1.5;" width="854.438" x="21" y="580.2725"/><path d="M277.0938,580.2725 L277.0938,589.5693 L267.0938,599.5693 L21,599.5693" fill="none" style="stroke:#000000;stroke-width:1.5;"/><text fill="#000000" font-family="sans-serif" font-size="14" lengthAdjust="spacing" textLength="246.0938" x="24" y="594.2676">compiler.retrieveEachFunctionPath</text><path d="M547.9707,616.4209 L547.9707,632.5537 L527.9707,636.5537 L547.9707,640.5537 L547.9707,656.6865 A0,0 0 0 0 547.9707,656.6865 L865.438,656.6865 A0,0 0 0 0 865.438,656.6865 L865.438,626.4209 L855.438,616.4209 L547.9707,616.4209 A0,0 0 0 0 547.9707,616.4209" fill="#FEFFDD" style="stroke:#181818;stroke-width:0.5;"/><path d="M855.438,616.4209 L855.438,626.4209 L865.438,626.4209 L855.438,616.4209" fill="#FEFFDD" style="stroke:#181818;stroke-width:0.5;"/><text fill="#000000" font-family="sans-serif" font-size="13" lengthAdjust="spacing" textLength="296.4673" x="553.9707" y="633.4878">for each function retrieve the full src file path</text><text fill="#000000" font-family="sans-serif" font-size="13" lengthAdjust="spacing" textLength="284.6987" x="553.9707" y="648.6206">try to get also _.sh and ZZZ.sh files if exists</text><rect fill="#00FF7F" height="33.9688" rx="12.5" ry="12.5" style="stroke:#181818;stroke-width:0.5;" width="496.9707" x="31" y="619.5693"/><text fill="#000000" font-family="sans-serif" font-size="12" lengthAdjust="spacing" textLength="476.9707" x="41" y="640.708">compiler.retrieveEachFunctionPath &amp;functionsMap, binaryModel.BinFile.SrcDirs</text><rect fill="#F1F1F1" height="33.9688" rx="12.5" ry="12.5" style="stroke:#181818;stroke-width:0.5;" width="424.7422" x="67.1143" y="779.0576"/><text fill="#000000" font-family="sans-serif" font-size="12" lengthAdjust="spacing" textLength="404.7422" x="77.1143" y="800.1963">compile.findFunctionInSrcDirs function, binaryModel.BinFile.SrcDirs</text><polygon fill="#AAAAAA" points="242.8411,833.0264,316.1296,833.0264,328.1296,845.0264,316.1296,857.0264,242.8411,857.0264,230.8411,845.0264,242.8411,833.0264" style="stroke:#181818;stroke-width:0.5;"/><text fill="#000000" font-family="sans-serif" font-size="11" lengthAdjust="spacing" textLength="73.2886" x="242.8411" y="848.8345">file not found</text><text fill="#000000" font-family="sans-serif" font-size="11" lengthAdjust="spacing" textLength="27.0649" x="328.1296" y="842.4321">error</text><ellipse cx="377.1946" cy="845.0264" fill="none" rx="11" ry="11" style="stroke:#222222;stroke-width:1;"/><ellipse cx="377.1946" cy="845.0264" fill="#222222" rx="6" ry="6" style="stroke:#222222;stroke-width:1;"/><rect fill="#F1F1F1" height="33.9688" rx="12.5" ry="12.5" style="stroke:#181818;stroke-width:0.5;" width="163.0625" x="197.9541" y="879.0576"/><text fill="#000000" font-family="sans-serif" font-size="12" lengthAdjust="spacing" textLength="143.0625" x="207.9541" y="900.1963">register function src file</text><rect fill="#F1F1F1" height="33.9688" rx="12.5" ry="12.5" style="stroke:#181818;stroke-width:0.5;" width="144.2422" x="207.3643" y="933.0264"/><text fill="#000000" font-family="sans-serif" font-size="12" lengthAdjust="spacing" textLength="124.2422" x="217.3643" y="954.165">register _.sh if exists</text><rect fill="#F1F1F1" height="33.9688" rx="12.5" ry="12.5" style="stroke:#181818;stroke-width:0.5;" width="162.9043" x="198.0332" y="986.9951"/><text fill="#000000" font-family="sans-serif" font-size="12" lengthAdjust="spacing" textLength="142.9043" x="208.0332" y="1008.1338">register ZZZ.sh if exists</text><polygon fill="#AAAAAA" points="257.0181,730.6553,301.9526,730.6553,313.9526,742.6553,301.9526,754.6553,257.0181,754.6553,245.0181,742.6553,257.0181,730.6553" style="stroke:#181818;stroke-width:0.5;"/><text fill="#000000" font-family="sans-serif" font-size="11" lengthAdjust="spacing" textLength="116.5366" x="283.4854" y="764.8657">not already retrieved</text><text fill="#000000" font-family="sans-serif" font-size="11" lengthAdjust="spacing" textLength="44.9346" x="257.0181" y="746.4634">function</text><polygon fill="#AAAAAA" points="279.4854,1040.9639,291.4854,1052.9639,279.4854,1064.9639,267.4854,1052.9639,279.4854,1040.9639" style="stroke:#181818;stroke-width:0.5;"/><rect fill="#F1F1F1" height="33.9688" rx="12.5" ry="12.5" style="stroke:#181818;stroke-width:0.5;" width="201.5645" x="178.7031" y="676.6865"/><text fill="#000000" font-family="sans-serif" font-size="12" lengthAdjust="spacing" textLength="181.5645" x="188.7031" y="697.8252">each function of functionsMap</text><polygon fill="#AAAAAA" points="237.9829,1084.9639,320.9878,1084.9639,332.9878,1096.9639,320.9878,1108.9639,237.9829,1108.9639,225.9829,1096.9639,237.9829,1084.9639" style="stroke:#181818;stroke-width:0.5;"/><text fill="#000000" font-family="sans-serif" font-size="11" lengthAdjust="spacing" textLength="83.0049" x="237.9829" y="1100.772">more function?</text><rect fill="#87CEFA" height="82.2656" style="stroke:#000000;stroke-width:1.5;" width="751.3984" x="100.7256" y="1130.9639"/><path d="M371.7695,1130.9639 L371.7695,1140.2607 L361.7695,1150.2607 L100.7256,1150.2607" fill="none" style="stroke:#000000;stroke-width:1.5;"/><text fill="#000000" font-family="sans-serif" font-size="14" lengthAdjust="spacing" textLength="261.0439" x="103.7256" y="1144.959">compiler.retrieveAllFunctionsContent</text><path d="M468.2451,1171.6787 L468.2451,1180.2451 L448.2451,1184.2451 L468.2451,1188.2451 L468.2451,1196.8115 A0,0 0 0 0 468.2451,1196.8115 L842.124,1196.8115 A0,0 0 0 0 842.124,1196.8115 L842.124,1181.6787 L832.124,1171.6787 L468.2451,1171.6787 A0,0 0 0 0 468.2451,1171.6787" fill="#FEFFDD" style="stroke:#181818;stroke-width:0.5;"/><path d="M832.124,1171.6787 L832.124,1181.6787 L842.124,1181.6787 L832.124,1171.6787" fill="#FEFFDD" style="stroke:#181818;stroke-width:0.5;"/><text fill="#000000" font-family="sans-serif" font-size="13" lengthAdjust="spacing" textLength="352.8789" x="474.2451" y="1188.7456">for each function retrieve content of each src file path</text><rect fill="#F1F1F1" height="33.9688" rx="12.5" ry="12.5" style="stroke:#181818;stroke-width:0.5;" width="337.5195" x="110.7256" y="1167.2607"/><text fill="#000000" font-family="sans-serif" font-size="12" lengthAdjust="spacing" textLength="317.5195" x="120.7256" y="1188.3994">compiler.retrieveAllFunctionsContent &amp;functionsMap</text><rect fill="#87CEFA" height="344.5547" style="stroke:#000000;stroke-width:1.5;" width="568.9321" x="58.4656" y="1223.2295"/><path d="M262.3875,1223.2295 L262.3875,1232.5264 L252.3875,1242.5264 L58.4656,1242.5264" fill="none" style="stroke:#000000;stroke-width:1.5;"/><text fill="#000000" font-family="sans-serif" font-size="14" lengthAdjust="spacing" textLength="193.9219" x="61.4656" y="1237.2246">Compiler::Require::requires</text><rect fill="#00FF7F" height="33.9688" rx="12.5" ry="12.5" style="stroke:#181818;stroke-width:0.5;" width="222.8984" x="168.0361" y="1259.5264"/><text fill="#000000" font-family="sans-serif" font-size="12" lengthAdjust="spacing" textLength="202.8984" x="178.0361" y="1280.665">Compiler::Require::filter scriptFile</text><rect fill="#00FF7F" height="61.9063" rx="12.5" ry="12.5" style="stroke:#181818;stroke-width:0.5;" width="278.9668" x="140.002" y="1373.9092"/><text fill="#000000" font-family="sans-serif" font-size="12" lengthAdjust="spacing" textLength="258.9668" x="150.002" y="1395.0479">Compiler::Require::parse $requireDirective</text><text fill="#000000" font-family="sans-serif" font-size="12" lengthAdjust="spacing" textLength="7.6289" x="150.002" y="1409.0166">&#160;&#160;</text><text fill="#000000" font-family="sans-serif" font-size="12" lengthAdjust="spacing" text-decoration="wavy underline" textLength="238.6875" x="157.6309" y="1409.0166">uses Compiler::Require::assertInterface</text><text fill="#000000" font-family="sans-serif" font-size="12" lengthAdjust="spacing" textLength="3.8145" x="150.002" y="1422.9854">&#160;</text><polygon fill="#AAAAAA" points="104.4656,1455.8154,454.5051,1455.8154,466.5051,1467.8154,454.5051,1479.8154,104.4656,1479.8154,92.4656,1467.8154,104.4656,1455.8154" style="stroke:#181818;stroke-width:0.5;"/><text fill="#000000" font-family="sans-serif" font-size="11" lengthAdjust="spacing" textLength="350.0396" x="104.4656" y="1471.6235">implement directive can't be parsed or function does not exist?</text><text fill="#FF0000" font-family="sans-serif" font-size="11" lengthAdjust="spacing" textLength="87.8926" x="466.5051" y="1465.2212">invalid directive</text><ellipse cx="574.3977" cy="1467.8154" fill="none" rx="10" ry="10" style="stroke:#FF0000;stroke-width:1.5;"/><line style="stroke:#FF0000;stroke-width:2.5;" x1="568.2105" x2="580.5849" y1="1461.6282" y2="1474.0026"/><line style="stroke:#FF0000;stroke-width:2.5;" x1="580.5849" x2="568.2105" y1="1461.6282" y2="1474.0026"/><rect fill="#F1F1F1" height="33.9688" rx="12.5" ry="12.5" style="stroke:#181818;stroke-width:0.5;" width="170.3164" x="194.3271" y="1499.8154"/><text fill="#000000" font-family="sans-serif" font-size="12" lengthAdjust="spacing" textLength="150.3164" x="204.3271" y="1520.9541">Compiler::Require::parse</text><polygon fill="#AAAAAA" points="232.0156,1318.1987,326.9551,1318.1987,338.9551,1330.1987,326.9551,1342.1987,232.0156,1342.1987,220.0156,1330.1987,232.0156,1318.1987" style="stroke:#181818;stroke-width:0.5;"/><text fill="#008000" font-family="sans-serif" font-size="11" lengthAdjust="spacing" textLength="126.1348" x="283.4854" y="1352.4092">require directive found</text><text fill="#000000" font-family="sans-serif" font-size="11" lengthAdjust="spacing" textLength="94.9395" x="232.0156" y="1334.0068">requireDirective?</text><text fill="#000000" font-family="sans-serif" font-size="11" lengthAdjust="spacing" textLength="89.0205" x="111.4443" y="1314.7998">no more require</text><text fill="#000000" font-family="sans-serif" font-size="11" lengthAdjust="spacing" textLength="108.5713" x="111.4443" y="1327.6045">directive to process</text><rect fill="#F1F1F1" height="47.9375" rx="12.5" ry="12.5" style="stroke:#181818;stroke-width:0.5;" width="282.6758" x="138.1475" y="1587.7842"/><text fill="#000000" font-family="sans-serif" font-size="12" lengthAdjust="spacing" textLength="226.6172" x="148.1475" y="1608.9229">import functions from 2 previous task</text><text fill="#000000" font-family="sans-serif" font-size="12" lengthAdjust="spacing" textLength="262.6758" x="148.1475" y="1622.8916">and inject them before # FUNCTIONS token</text><rect fill="#87CEFA" height="146.9609" style="stroke:#000000;stroke-width:1.5;" width="651.0146" x="112.749" y="1701.4624"/><path d="M316.6709,1701.4624 L316.6709,1710.7593 L306.6709,1720.7593 L112.749,1720.7593" fill="none" style="stroke:#000000;stroke-width:1.5;"/><text fill="#000000" font-family="sans-serif" font-size="14" lengthAdjust="spacing" textLength="193.9219" x="115.749" y="1715.4575">Compiler::Require::requires</text><path d="M446.2217,1740.7593 L446.2217,1826.4233 L743.7637,1826.4233 L743.7637,1750.7593 L733.7637,1740.7593 L446.2217,1740.7593" fill="#FEFFDD" style="stroke:#181818;stroke-width:0.5;"/><path d="M733.7637,1740.7593 L733.7637,1750.7593 L743.7637,1750.7593 L733.7637,1740.7593" fill="#FEFFDD" style="stroke:#181818;stroke-width:0.5;"/><text fill="#000000" font-family="sans-serif" font-size="13" font-weight="bold" lengthAdjust="spacing" textLength="100.166" x="452.2217" y="1757.8262">second phase</text><text fill="#000000" font-family="sans-serif" font-size="13" lengthAdjust="spacing" textLength="246.708" x="452.2217" y="1772.959">call again Compiler::Require::requires</text><text fill="#000000" font-family="sans-serif" font-size="13" lengthAdjust="spacing" textLength="276.542" x="452.2217" y="1788.0918">to get final list of requires in reverse order</text><text fill="#000000" font-family="sans-serif" font-size="13" lengthAdjust="spacing" textLength="272.6699" x="452.2217" y="1803.2246">to add the calls to those require functions</text><text fill="#000000" font-family="sans-serif" font-size="13" lengthAdjust="spacing" textLength="125.252" x="452.2217" y="1818.3574">just after the token</text><text fill="#000000" font-family="sans-serif" font-size="13" lengthAdjust="spacing" text-decoration="wavy underline" textLength="81.3516" x="581.606" y="1818.3574"># REQUIRES</text><rect fill="#F1F1F1" height="33.9688" rx="12.5" ry="12.5" style="stroke:#181818;stroke-width:0.5;" width="313.4727" x="122.749" y="1766.6069"/><text fill="#000000" font-family="sans-serif" font-size="12" lengthAdjust="spacing" textLength="293.4727" x="132.749" y="1787.7456">File::insertFileAfterToken requires "# REQUIRES"</text><rect fill="#FFC0CB" height="190.2031" style="stroke:#000000;stroke-width:1.5;" width="334.9844" x="111.9932" y="1858.4233"/><path d="M216.8281,1858.4233 L216.8281,1867.7202 L206.8281,1877.7202 L111.9932,1877.7202" fill="none" style="stroke:#000000;stroke-width:1.5;"/><text fill="#000000" font-family="sans-serif" font-size="14" lengthAdjust="spacing" textLength="94.835" x="114.9932" y="1872.4185">compilerEnds</text><rect fill="#F1F1F1" height="33.9688" rx="12.5" ry="12.5" style="stroke:#181818;stroke-width:0.5;" width="312.0605" x="123.4551" y="1894.7202"/><text fill="#000000" font-family="sans-serif" font-size="12" lengthAdjust="spacing" textLength="292.0605" x="133.4551" y="1915.8589">Compiler::Implement::mergeInterfacesFunctions</text><rect fill="#F1F1F1" height="33.9688" rx="12.5" ry="12.5" style="stroke:#181818;stroke-width:0.5;" width="314.9844" x="121.9932" y="1948.689"/><text fill="#000000" font-family="sans-serif" font-size="12" lengthAdjust="spacing" textLength="294.9844" x="131.9932" y="1969.8276">Compiler::Implement::validateInterfaceFunctions</text><rect fill="#F1F1F1" height="33.9688" rx="12.5" ry="12.5" style="stroke:#181818;stroke-width:0.5;" width="99.7109" x="229.6299" y="2002.6577"/><text fill="#000000" font-family="sans-serif" font-size="12" lengthAdjust="spacing" textLength="79.7109" x="239.6299" y="2023.7964">Output result</text><ellipse cx="279.4854" cy="2078.6265" fill="none" rx="10" ry="10" style="stroke:#FF0000;stroke-width:1.5;"/><line style="stroke:#FF0000;stroke-width:2.5;" x1="273.2982" x2="285.6725" y1="2072.4393" y2="2084.8136"/><line style="stroke:#FF0000;stroke-width:2.5;" x1="285.6725" x2="273.2982" y1="2072.4393" y2="2084.8136"/><line style="stroke:#181818;stroke-width:1;" x1="279.4854" x2="279.4854" y1="67.2969" y2="87.2969"/><polygon fill="#181818" points="275.4854,77.2969,279.4854,87.2969,283.4854,77.2969,279.4854,81.2969" style="stroke:#181818;stroke-width:1;"/><line style="stroke:#181818;stroke-width:1;" x1="279.4854" x2="279.4854" y1="121.2656" y2="141.2656"/><polygon fill="#181818" points="275.4854,131.2656,279.4854,141.2656,283.4854,131.2656,279.4854,135.2656" style="stroke:#181818;stroke-width:1;"/><line style="stroke:#181818;stroke-width:1;" x1="279.4854" x2="279.4854" y1="219.2344" y2="277.2417"/><polygon fill="#181818" points="275.4854,267.2417,279.4854,277.2417,283.4854,267.2417,279.4854,271.2417" style="stroke:#181818;stroke-width:1;"/><line style="stroke:#181818;stroke-width:1;" x1="303.4854" x2="341.5503" y1="207.2344" y2="207.2344"/><polygon fill="#181818" points="331.5503,203.2344,341.5503,207.2344,331.5503,211.2344,335.5503,207.2344" style="stroke:#181818;stroke-width:1;"/><line style="stroke:#181818;stroke-width:1;" x1="279.4854" x2="279.4854" y1="175.2344" y2="195.2344"/><polygon fill="#181818" points="275.4854,185.2344,279.4854,195.2344,283.4854,185.2344,279.4854,189.2344" style="stroke:#181818;stroke-width:1;"/><line style="stroke:#181818;stroke-width:1;" x1="279.4854" x2="279.4854" y1="311.2104" y2="331.2104"/><polygon fill="#181818" points="275.4854,321.2104,279.4854,331.2104,283.4854,321.2104,279.4854,325.2104" style="stroke:#181818;stroke-width:1;"/><line style="stroke:#181818;stroke-width:1;" x1="279.4854" x2="279.4854" y1="365.1792" y2="385.1792"/><polygon fill="#181818" points="275.4854,375.1792,279.4854,385.1792,283.4854,375.1792,279.4854,379.1792" style="stroke:#181818;stroke-width:1;"/><line style="stroke:#181818;stroke-width:1;" x1="279.4854" x2="279.4854" y1="466.2964" y2="536.3037"/><polygon fill="#181818" points="275.4854,526.3037,279.4854,536.3037,283.4854,526.3037,279.4854,530.3037" style="stroke:#181818;stroke-width:1;"/><line style="stroke:#181818;stroke-width:1;" x1="303.4854" x2="341.5503" y1="454.2964" y2="454.2964"/><polygon fill="#181818" points="331.5503,450.2964,341.5503,454.2964,331.5503,458.2964,335.5503,454.2964" style="stroke:#181818;stroke-width:1;"/><line style="stroke:#181818;stroke-width:1;" x1="279.4854" x2="279.4854" y1="419.1479" y2="442.2964"/><polygon fill="#181818" points="275.4854,432.2964,279.4854,442.2964,283.4854,432.2964,279.4854,436.2964" style="stroke:#181818;stroke-width:1;"/><line style="stroke:#181818;stroke-width:1;" x1="279.4854" x2="279.4854" y1="857.0264" y2="879.0576"/><polygon fill="#181818" points="275.4854,869.0576,279.4854,879.0576,283.4854,869.0576,279.4854,873.0576" style="stroke:#181818;stroke-width:1;"/><line style="stroke:#181818;stroke-width:1;" x1="328.1296" x2="366.1946" y1="845.0264" y2="845.0264"/><polygon fill="#181818" points="356.1946,841.0264,366.1946,845.0264,356.1946,849.0264,360.1946,845.0264" style="stroke:#181818;stroke-width:1;"/><line style="stroke:#181818;stroke-width:1;" x1="279.4854" x2="279.4854" y1="813.0264" y2="833.0264"/><polygon fill="#181818" points="275.4854,823.0264,279.4854,833.0264,283.4854,823.0264,279.4854,827.0264" style="stroke:#181818;stroke-width:1;"/><line style="stroke:#181818;stroke-width:1;" x1="279.4854" x2="279.4854" y1="913.0264" y2="933.0264"/><polygon fill="#181818" points="275.4854,923.0264,279.4854,933.0264,283.4854,923.0264,279.4854,927.0264" style="stroke:#181818;stroke-width:1;"/><line style="stroke:#181818;stroke-width:1;" x1="279.4854" x2="279.4854" y1="966.9951" y2="986.9951"/><polygon fill="#181818" points="275.4854,976.9951,279.4854,986.9951,283.4854,976.9951,279.4854,980.9951" style="stroke:#181818;stroke-width:1;"/><line style="stroke:#181818;stroke-width:1;" x1="279.4854" x2="279.4854" y1="754.6553" y2="779.0576"/><polygon fill="#181818" points="275.4854,769.0576,279.4854,779.0576,283.4854,769.0576,279.4854,773.0576" style="stroke:#181818;stroke-width:1;"/><line style="stroke:#181818;stroke-width:1;" x1="313.9526" x2="501.8564" y1="742.6553" y2="742.6553"/><polygon fill="#181818" points="497.8564,867.0264,501.8564,877.0264,505.8564,867.0264,501.8564,871.0264" style="stroke:#181818;stroke-width:1;"/><line style="stroke:#181818;stroke-width:1;" x1="501.8564" x2="501.8564" y1="742.6553" y2="1052.9639"/><line style="stroke:#181818;stroke-width:1;" x1="501.8564" x2="291.4854" y1="1052.9639" y2="1052.9639"/><polygon fill="#181818" points="301.4854,1048.9639,291.4854,1052.9639,301.4854,1056.9639,297.4854,1052.9639" style="stroke:#181818;stroke-width:1;"/><line style="stroke:#181818;stroke-width:1;" x1="279.4854" x2="279.4854" y1="1020.9639" y2="1040.9639"/><polygon fill="#181818" points="275.4854,1030.9639,279.4854,1040.9639,283.4854,1030.9639,279.4854,1034.9639" style="stroke:#181818;stroke-width:1;"/><line style="stroke:#181818;stroke-width:1;" x1="279.4854" x2="279.4854" y1="710.6553" y2="730.6553"/><polygon fill="#181818" points="275.4854,720.6553,279.4854,730.6553,283.4854,720.6553,279.4854,724.6553" style="stroke:#181818;stroke-width:1;"/><line style="stroke:#181818;stroke-width:1;" x1="332.9878" x2="525.8564" y1="1096.9639" y2="1096.9639"/><polygon fill="#181818" points="521.8564,884.5342,525.8564,874.5342,529.8564,884.5342,525.8564,880.5342" style="stroke:#181818;stroke-width:1;"/><line style="stroke:#181818;stroke-width:1;" x1="525.8564" x2="525.8564" y1="693.6709" y2="1096.9639"/><line style="stroke:#181818;stroke-width:1;" x1="525.8564" x2="380.2676" y1="693.6709" y2="693.6709"/><polygon fill="#181818" points="390.2676,689.6709,380.2676,693.6709,390.2676,697.6709,386.2676,693.6709" style="stroke:#181818;stroke-width:1;"/><line style="stroke:#181818;stroke-width:1;" x1="279.4854" x2="279.4854" y1="1064.9639" y2="1084.9639"/><polygon fill="#181818" points="275.4854,1074.9639,279.4854,1084.9639,283.4854,1074.9639,279.4854,1078.9639" style="stroke:#181818;stroke-width:1;"/><line style="stroke:#181818;stroke-width:1;" x1="279.4854" x2="279.4854" y1="653.5381" y2="676.6865"/><polygon fill="#181818" points="275.4854,666.6865,279.4854,676.6865,283.4854,666.6865,279.4854,670.6865" style="stroke:#181818;stroke-width:1;"/><line style="stroke:#181818;stroke-width:1;" x1="279.4854" x2="279.4854" y1="570.2725" y2="619.5693"/><polygon fill="#181818" points="275.4854,609.5693,279.4854,619.5693,283.4854,609.5693,279.4854,613.5693" style="stroke:#181818;stroke-width:1;"/><line style="stroke:#181818;stroke-width:1;" x1="279.4854" x2="279.4854" y1="1108.9639" y2="1167.2607"/><polygon fill="#181818" points="275.4854,1157.2607,279.4854,1167.2607,283.4854,1157.2607,279.4854,1161.2607" style="stroke:#181818;stroke-width:1;"/><line style="stroke:#181818;stroke-width:1;" x1="279.4854" x2="279.4854" y1="1479.8154" y2="1499.8154"/><polygon fill="#181818" points="275.4854,1489.8154,279.4854,1499.8154,283.4854,1489.8154,279.4854,1493.8154" style="stroke:#181818;stroke-width:1;"/><line style="stroke:#FF0000;stroke-width:1;" x1="466.5051" x2="564.3977" y1="1467.8154" y2="1467.8154"/><polygon fill="#FF0000" points="554.3977,1463.8154,564.3977,1467.8154,554.3977,1471.8154,558.3977,1467.8154" style="stroke:#FF0000;stroke-width:1;"/><line style="stroke:#181818;stroke-width:1;" x1="279.4854" x2="279.4854" y1="1435.8154" y2="1455.8154"/><polygon fill="#181818" points="275.4854,1445.8154,279.4854,1455.8154,283.4854,1445.8154,279.4854,1449.8154" style="stroke:#181818;stroke-width:1;"/><line style="stroke:#008000;stroke-width:1;" x1="279.4854" x2="279.4854" y1="1342.1987" y2="1373.9092"/><polygon fill="#008000" points="275.4854,1363.9092,279.4854,1373.9092,283.4854,1363.9092,279.4854,1367.9092" style="stroke:#008000;stroke-width:1;"/><line style="stroke:#181818;stroke-width:1;" x1="279.4854" x2="279.4854" y1="1533.7842" y2="1543.7842"/><line style="stroke:#181818;stroke-width:1;" x1="279.4854" x2="608.3977" y1="1543.7842" y2="1543.7842"/><polygon fill="#181818" points="604.3977,1469.4443,608.3977,1459.4443,612.3977,1469.4443,608.3977,1465.4443" style="stroke:#181818;stroke-width:1;"/><line style="stroke:#181818;stroke-width:1;" x1="608.3977" x2="608.3977" y1="1330.1987" y2="1543.7842"/><line style="stroke:#181818;stroke-width:1;" x1="608.3977" x2="338.9551" y1="1330.1987" y2="1330.1987"/><polygon fill="#181818" points="348.9551,1326.1987,338.9551,1330.1987,348.9551,1334.1987,344.9551,1330.1987" style="stroke:#181818;stroke-width:1;"/><line style="stroke:#181818;stroke-width:1;" x1="220.0156" x2="80.4656" y1="1330.1987" y2="1330.1987"/><polygon fill="#181818" points="76.4656,1455.4443,80.4656,1465.4443,84.4656,1455.4443,80.4656,1459.4443" style="stroke:#181818;stroke-width:1;"/><line style="stroke:#181818;stroke-width:1;" x1="80.4656" x2="80.4656" y1="1330.1987" y2="1555.7842"/><line style="stroke:#181818;stroke-width:1;" x1="80.4656" x2="279.4854" y1="1555.7842" y2="1555.7842"/><line style="stroke:#181818;stroke-width:1;" x1="279.4854" x2="279.4854" y1="1555.7842" y2="1587.7842"/><polygon fill="#181818" points="275.4854,1577.7842,279.4854,1587.7842,283.4854,1577.7842,279.4854,1581.7842" style="stroke:#181818;stroke-width:1;"/><line style="stroke:#181818;stroke-width:1;" x1="279.4854" x2="279.4854" y1="1293.4951" y2="1318.1987"/><polygon fill="#181818" points="275.4854,1308.1987,279.4854,1318.1987,283.4854,1308.1987,279.4854,1312.1987" style="stroke:#181818;stroke-width:1;"/><line style="stroke:#181818;stroke-width:1;" x1="279.4854" x2="279.4854" y1="1201.2295" y2="1259.5264"/><polygon fill="#181818" points="275.4854,1249.5264,279.4854,1259.5264,283.4854,1249.5264,279.4854,1253.5264" style="stroke:#181818;stroke-width:1;"/><line style="stroke:#008000;stroke-width:1.5;stroke-dasharray:7,7;" x1="279.4854" x2="279.4854" y1="1635.7217" y2="1766.6069"/><polygon fill="#008000" points="275.4854,1756.6069,279.4854,1766.6069,283.4854,1756.6069,279.4854,1760.6069" style="stroke:#008000;stroke-width:1;"/><text fill="#000000" font-family="sans-serif" font-size="11" lengthAdjust="spacing" textLength="47.8779" x="283.4854" y="1669.0264">compiler</text><text fill="#000000" font-family="sans-serif" font-size="11" lengthAdjust="spacing" textLength="42.5122" x="283.4854" y="1681.8311">process</text><text fill="#000000" font-family="sans-serif" font-size="11" lengthAdjust="spacing" textLength="53.5605" x="283.4854" y="1694.6357">continues</text><text fill="#000000" font-family="sans-serif" font-size="11" lengthAdjust="spacing" textLength="3.4966" x="283.4854" y="1707.4404">&#160;</text><line style="stroke:#181818;stroke-width:1;" x1="279.4854" x2="279.4854" y1="1928.689" y2="1948.689"/><polygon fill="#181818" points="275.4854,1938.689,279.4854,1948.689,283.4854,1938.689,279.4854,1942.689" style="stroke:#181818;stroke-width:1;"/><line style="stroke:#181818;stroke-width:1;" x1="279.4854" x2="279.4854" y1="1982.6577" y2="2002.6577"/><polygon fill="#181818" points="275.4854,1992.6577,279.4854,2002.6577,283.4854,1992.6577,279.4854,1996.6577" style="stroke:#181818;stroke-width:1;"/><line style="stroke:#181818;stroke-width:1;" x1="279.4854" x2="279.4854" y1="1800.5757" y2="1894.7202"/><polygon fill="#181818" points="275.4854,1884.7202,279.4854,1894.7202,283.4854,1884.7202,279.4854,1888.7202" style="stroke:#181818;stroke-width:1;"/><line style="stroke:#181818;stroke-width:1;" x1="279.4854" x2="279.4854" y1="2036.6265" y2="2068.6265"/><polygon fill="#181818" points="275.4854,2058.6265,279.4854,2068.6265,283.4854,2058.6265,279.4854,2062.6265" style="stroke:#181818;stroke-width:1;"/></g></svg>
