<?plantuml 1.2026.2?><svg xmlns="http://www.w3.org/2000/svg" xmlns:xlink="http://www.w3.org/1999/xlink" contentStyleType="text/css" data-diagram-type="DESCRIPTION" height="656px" preserveAspectRatio="none" style="width:1068px;height:656px;background:#FFFFFF;" version="1.1" viewBox="0 0 1068 656" width="1068px" zoomAndPan="magnify"><defs/><g><!--cluster main--><g class="cluster" data-qualified-name="main" data-source-line="4" id="ent0002"><path d="M8.5,6 L48.3008,6 A3.75,3.75 0 0 1 50.8008,8.5 L57.8008,28.2969 L420.5,28.2969 A2.5,2.5 0 0 1 423,30.7969 L423,364.09 A2.5,2.5 0 0 1 420.5,366.59 L8.5,366.59 A2.5,2.5 0 0 1 6,364.09 L6,8.5 A2.5,2.5 0 0 1 8.5,6" fill="none" style="stroke:#000000;stroke-width:1.5;"/><line style="stroke:#000000;stroke-width:1.5;" x1="6" x2="57.8008" y1="28.2969" y2="28.2969"/><text fill="#000000" font-family="sans-serif" font-size="14" font-weight="bold" lengthAdjust="spacing" textLength="38.8008" x="10" y="20.9951">main</text></g><!--cluster services--><g class="cluster" data-qualified-name="services" data-source-line="10" id="ent0010"><path d="M449.5,269.3 L515.2842,269.3 A3.75,3.75 0 0 1 517.7842,271.8 L524.7842,291.5969 L1050.5,291.5969 A2.5,2.5 0 0 1 1053,294.0969 L1053,501.09 A2.5,2.5 0 0 1 1050.5,503.59 L449.5,503.59 A2.5,2.5 0 0 1 447,501.09 L447,271.8 A2.5,2.5 0 0 1 449.5,269.3" fill="none" style="stroke:#000000;stroke-width:1.5;"/><line style="stroke:#000000;stroke-width:1.5;" x1="447" x2="524.7842" y1="291.5969" y2="291.5969"/><text fill="#000000" font-family="sans-serif" font-size="14" font-weight="bold" lengthAdjust="spacing" textLength="64.7842" x="451" y="284.2951">services</text></g><!--cluster model--><g class="cluster" data-qualified-name="model" data-source-line="17" id="ent0019"><path d="M467.5,552.59 L517.0215,552.59 A3.75,3.75 0 0 1 519.5215,555.09 L526.5215,574.8869 L622.5,574.8869 A2.5,2.5 0 0 1 625,577.3869 L625,647.39 A2.5,2.5 0 0 1 622.5,649.89 L467.5,649.89 A2.5,2.5 0 0 1 465,647.39 L465,555.09 A2.5,2.5 0 0 1 467.5,552.59" fill="none" style="stroke:#000000;stroke-width:1.5;"/><line style="stroke:#000000;stroke-width:1.5;" x1="465" x2="526.5215" y1="574.8869" y2="574.8869"/><text fill="#000000" font-family="sans-serif" font-size="14" font-weight="bold" lengthAdjust="spacing" textLength="48.5215" x="469" y="567.5851">model</text></g><!--cluster render--><g class="cluster" data-qualified-name="render" data-source-line="21" id="ent0022"><path d="M667.5,552.59 L721.2871,552.59 A3.75,3.75 0 0 1 723.7871,555.09 L730.7871,574.8869 L856.5,574.8869 A2.5,2.5 0 0 1 859,577.3869 L859,647.39 A2.5,2.5 0 0 1 856.5,649.89 L667.5,649.89 A2.5,2.5 0 0 1 665,647.39 L665,555.09 A2.5,2.5 0 0 1 667.5,552.59" fill="none" style="stroke:#000000;stroke-width:1.5;"/><line style="stroke:#000000;stroke-width:1.5;" x1="665" x2="730.7871" y1="574.8869" y2="574.8869"/><text fill="#000000" font-family="sans-serif" font-size="14" font-weight="bold" lengthAdjust="spacing" textLength="52.7871" x="669" y="567.5851">render</text></g><!--cluster compiler--><g class="cluster" data-qualified-name="compiler" data-source-line="25" id="ent0025"><path d="M901.5,552.59 L971.0234,552.59 A3.75,3.75 0 0 1 973.5234,555.09 L980.5234,574.8869 L1032.5,574.8869 A2.5,2.5 0 0 1 1035,577.3869 L1035,647.39 A2.5,2.5 0 0 1 1032.5,649.89 L901.5,649.89 A2.5,2.5 0 0 1 899,647.39 L899,555.09 A2.5,2.5 0 0 1 901.5,552.59" fill="none" style="stroke:#000000;stroke-width:1.5;"/><line style="stroke:#000000;stroke-width:1.5;" x1="899" x2="980.5234" y1="574.8869" y2="574.8869"/><text fill="#000000" font-family="sans-serif" font-size="14" font-weight="bold" lengthAdjust="spacing" textLength="68.5234" x="903" y="567.5851">compiler</text></g><!--entity Main--><g class="entity" data-qualified-name="main.Main" data-source-line="5" id="ent0003"><rect fill="#F1F1F1" height="46.2969" rx="2.5" ry="2.5" style="stroke:#181818;stroke-width:0.5;" width="73.4209" x="157.29" y="41"/><rect fill="#F1F1F1" height="10" style="stroke:#181818;stroke-width:0.5;" width="15" x="210.7109" y="46"/><rect fill="#F1F1F1" height="2" style="stroke:#181818;stroke-width:0.5;" width="4" x="208.7109" y="48"/><rect fill="#F1F1F1" height="2" style="stroke:#181818;stroke-width:0.5;" width="4" x="208.7109" y="52"/><text fill="#000000" font-family="sans-serif" font-size="14" lengthAdjust="spacing" textLength="33.4209" x="172.29" y="73.9951">Main</text></g><!--entity ParseCliInterface--><g class="entity" data-qualified-name="main.ParseCliInterface" data-source-line="5" id="ent0004"><ellipse cx="89" cy="177.3" fill="#F1F1F1" rx="8" ry="8" style="stroke:#181818;stroke-width:0.5;"/><text fill="#000000" font-family="sans-serif" font-size="14" lengthAdjust="spacing" textLength="118.918" x="29.541" y="207.2951">ParseCliInterface</text></g><!--entity BinaryModelServiceInterface--><g class="entity" data-qualified-name="main.BinaryModelServiceInterface" data-source-line="6" id="ent0006"><ellipse cx="299" cy="177.3" fill="#F1F1F1" rx="8" ry="8" style="stroke:#181818;stroke-width:0.5;"/><text fill="#000000" font-family="sans-serif" font-size="14" lengthAdjust="spacing" textLength="201.4414" x="198.2793" y="207.2951">BinaryModelServiceInterface</text></g><!--entity ParseCli--><g class="entity" data-qualified-name="main.ParseCli" data-source-line="7" id="ent0008"><rect fill="#F1F1F1" height="46.2969" rx="2.5" ry="2.5" style="stroke:#181818;stroke-width:0.5;" width="96.2393" x="40.88" y="304.3"/><rect fill="#F1F1F1" height="10" style="stroke:#181818;stroke-width:0.5;" width="15" x="117.1193" y="309.3"/><rect fill="#F1F1F1" height="2" style="stroke:#181818;stroke-width:0.5;" width="4" x="115.1193" y="311.3"/><rect fill="#F1F1F1" height="2" style="stroke:#181818;stroke-width:0.5;" width="4" x="115.1193" y="315.3"/><text fill="#000000" font-family="sans-serif" font-size="14" lengthAdjust="spacing" textLength="56.2393" x="55.88" y="337.2951">ParseCli</text></g><!--entity BinaryModelService--><g class="entity" data-qualified-name="services.BinaryModelService" data-source-line="11" id="ent0011"><rect fill="#F1F1F1" height="46.2969" rx="2.5" ry="2.5" style="stroke:#181818;stroke-width:0.5;" width="178.7627" x="502.62" y="304.3"/><rect fill="#F1F1F1" height="10" style="stroke:#181818;stroke-width:0.5;" width="15" x="661.3827" y="309.3"/><rect fill="#F1F1F1" height="2" style="stroke:#181818;stroke-width:0.5;" width="4" x="659.3827" y="311.3"/><rect fill="#F1F1F1" height="2" style="stroke:#181818;stroke-width:0.5;" width="4" x="659.3827" y="315.3"/><text fill="#000000" font-family="sans-serif" font-size="14" lengthAdjust="spacing" textLength="138.7627" x="517.62" y="337.2951">BinaryModelService</text></g><!--entity BinaryModelInterface--><g class="entity" data-qualified-name="services.BinaryModelInterface" data-source-line="12" id="ent0013"><ellipse cx="545" cy="458.59" fill="#F1F1F1" rx="8" ry="8" style="stroke:#181818;stroke-width:0.5;"/><text fill="#000000" font-family="sans-serif" font-size="14" lengthAdjust="spacing" textLength="149.7002" x="470.1499" y="488.5851">BinaryModelInterface</text></g><!--entity TemplateContextInterface--><g class="entity" data-qualified-name="services.TemplateContextInterface" data-source-line="13" id="ent0015"><ellipse cx="762" cy="458.59" fill="#F1F1F1" rx="8" ry="8" style="stroke:#181818;stroke-width:0.5;"/><text fill="#000000" font-family="sans-serif" font-size="14" lengthAdjust="spacing" textLength="184.0303" x="669.9849" y="488.5851">TemplateContextInterface</text></g><!--entity CompilerInterface--><g class="entity" data-qualified-name="services.CompilerInterface" data-source-line="14" id="ent0017"><ellipse cx="967" cy="458.59" fill="#F1F1F1" rx="8" ry="8" style="stroke:#181818;stroke-width:0.5;"/><text fill="#000000" font-family="sans-serif" font-size="14" lengthAdjust="spacing" textLength="125.6924" x="904.1538" y="488.5851">CompilerInterface</text></g><!--entity BinaryModel--><g class="entity" data-qualified-name="model.BinaryModel" data-source-line="18" id="ent0020"><rect fill="#F1F1F1" height="46.2969" rx="2.5" ry="2.5" style="stroke:#181818;stroke-width:0.5;" width="127.0215" x="481.49" y="587.59"/><rect fill="#F1F1F1" height="10" style="stroke:#181818;stroke-width:0.5;" width="15" x="588.5115" y="592.59"/><rect fill="#F1F1F1" height="2" style="stroke:#181818;stroke-width:0.5;" width="4" x="586.5115" y="594.59"/><rect fill="#F1F1F1" height="2" style="stroke:#181818;stroke-width:0.5;" width="4" x="586.5115" y="598.59"/><text fill="#000000" font-family="sans-serif" font-size="14" lengthAdjust="spacing" textLength="87.0215" x="496.49" y="620.5851">BinaryModel</text></g><!--entity TemplateContext--><g class="entity" data-qualified-name="render.TemplateContext" data-source-line="22" id="ent0023"><rect fill="#F1F1F1" height="46.2969" rx="2.5" ry="2.5" style="stroke:#181818;stroke-width:0.5;" width="161.3516" x="681.32" y="587.59"/><rect fill="#F1F1F1" height="10" style="stroke:#181818;stroke-width:0.5;" width="15" x="822.6716" y="592.59"/><rect fill="#F1F1F1" height="2" style="stroke:#181818;stroke-width:0.5;" width="4" x="820.6716" y="594.59"/><rect fill="#F1F1F1" height="2" style="stroke:#181818;stroke-width:0.5;" width="4" x="820.6716" y="598.59"/><text fill="#000000" font-family="sans-serif" font-size="14" lengthAdjust="spacing" textLength="121.3516" x="696.32" y="620.5851">TemplateContext</text></g><!--entity Compiler--><g class="entity" data-qualified-name="compiler.Compiler" data-source-line="26" id="ent0026"><rect fill="#F1F1F1" height="46.2969" rx="2.5" ry="2.5" style="stroke:#181818;stroke-width:0.5;" width="103.0137" x="915.49" y="587.59"/><rect fill="#F1F1F1" height="10" style="stroke:#181818;stroke-width:0.5;" width="15" x="998.5037" y="592.59"/><rect fill="#F1F1F1" height="2" style="stroke:#181818;stroke-width:0.5;" width="4" x="996.5037" y="594.59"/><rect fill="#F1F1F1" height="2" style="stroke:#181818;stroke-width:0.5;" width="4" x="996.5037" y="598.59"/><text fill="#000000" font-family="sans-serif" font-size="14" lengthAdjust="spacing" textLength="63.0137" x="930.49" y="620.5851">Compiler</text></g><!--link Main to ParseCliInterface--><g class="link" data-entity-1="ent0003" data-entity-2="ent0004" data-link-type="dependency" data-source-line="5" id="lnk5"><path d="M172.75,87.64 C149.14,112.63 116.3905,147.2986 100.6505,163.9586" fill="none" id="Main-to-ParseCliInterface" style="stroke:#181818;stroke-width:1;stroke-dasharray:7,7;"/><polygon fill="#181818" points="96.53,168.32,105.6183,164.525,99.9638,164.6855,99.8032,159.031,96.53,168.32" style="stroke:#181818;stroke-width:1;"/></g><!--link Main to BinaryModelServiceInterface--><g class="link" data-entity-1="ent0003" data-entity-2="ent0006" data-link-type="dependency" data-source-line="6" id="lnk7"><path d="M215.25,87.64 C238.86,112.63 271.6095,147.2986 287.3495,163.9586" fill="none" id="Main-to-BinaryModelServiceInterface" style="stroke:#181818;stroke-width:1;stroke-dasharray:7,7;"/><polygon fill="#181818" points="291.47,168.32,288.1968,159.031,288.0362,164.6855,282.3817,164.525,291.47,168.32" style="stroke:#181818;stroke-width:1;"/></g><!--reverse link ParseCliInterface to ParseCli--><g class="link" data-entity-1="ent0004" data-entity-2="ent0008" data-source-line="7" id="lnk9"><path d="M89,196.26 C89,218.2 89,270.1 89,303.84" fill="none" id="ParseCliInterface-backto-ParseCli" style="stroke:#181818;stroke-width:1;"/><path d="M80.5428,189.3382 A9,9 0 0 0 97.4572 189.3382" fill="none" style="stroke:#181818;stroke-width:1.5;"/><text fill="#000000" font-family="sans-serif" font-size="13" lengthAdjust="spacing" textLength="92.8154" x="90" y="249.3669">&#171;implements&#187;</text></g><!--reverse link BinaryModelServiceInterface to BinaryModelService--><g class="link" data-entity-1="ent0006" data-entity-2="ent0011" data-source-line="11" id="lnk12"><path d="M316.694,187.2425 C352.014,205.1025 476.46,268.03 547.24,303.81" fill="none" id="BinaryModelServiceInterface-backto-BinaryModelService" style="stroke:#181818;stroke-width:1;"/><path d="M306.7006,191.6662 A9,9 0 0 0 314.3333 176.5718" fill="none" style="stroke:#181818;stroke-width:1.5;"/><text fill="#000000" font-family="sans-serif" font-size="13" lengthAdjust="spacing" textLength="92.8154" x="446.5" y="249.3669">&#171;implements&#187;</text></g><!--link BinaryModelService to BinaryModelInterface--><g class="link" data-entity-1="ent0011" data-entity-2="ent0013" data-link-type="dependency" data-source-line="12" id="lnk14"><path d="M583.81,350.94 C573.08,380.43 556.8609,425.0014 549.8809,444.1914" fill="none" id="BinaryModelService-to-BinaryModelInterface" style="stroke:#181818;stroke-width:1;stroke-dasharray:7,7;"/><polygon fill="#181818" points="547.83,449.83,554.6655,442.7394,549.5391,445.1312,547.1473,440.0048,547.83,449.83" style="stroke:#181818;stroke-width:1;"/><text fill="#000000" font-family="sans-serif" font-size="13" lengthAdjust="spacing" textLength="45.6904" x="572.31" y="395.6569">&#171;uses&#187;</text></g><!--link BinaryModelService to TemplateContextInterface--><g class="link" data-entity-1="ent0011" data-entity-2="ent0015" data-link-type="dependency" data-source-line="13" id="lnk16"><path d="M621.61,350.94 C661.19,381 724.3522,428.9906 748.4422,447.2906" fill="none" id="BinaryModelService-to-TemplateContextInterface" style="stroke:#181818;stroke-width:1;stroke-dasharray:7,7;"/><polygon fill="#181818" points="753.22,450.92,748.473,442.2907,749.2385,447.8955,743.6337,448.661,753.22,450.92" style="stroke:#181818;stroke-width:1;"/><text fill="#000000" font-family="sans-serif" font-size="13" lengthAdjust="spacing" textLength="45.6904" x="683.1" y="395.6569">&#171;uses&#187;</text></g><!--link BinaryModelService to CompilerInterface--><g class="link" data-entity-1="ent0011" data-entity-2="ent0017" data-link-type="dependency" data-source-line="14" id="lnk18"><path d="M657.75,351.09 C751.85,383.5 912.3774,438.775 952.4474,452.585" fill="none" id="BinaryModelService-to-CompilerInterface" style="stroke:#181818;stroke-width:1;stroke-dasharray:7,7;"/><polygon fill="#181818" points="958.12,454.54,950.9145,447.8258,953.3929,452.9108,948.3078,455.3892,958.12,454.54" style="stroke:#181818;stroke-width:1;"/><text fill="#000000" font-family="sans-serif" font-size="13" lengthAdjust="spacing" textLength="45.6904" x="791.74" y="395.6569">&#171;uses&#187;</text></g><!--reverse link BinaryModelInterface to BinaryModel--><g class="link" data-entity-1="ent0013" data-entity-2="ent0020" data-source-line="18" id="lnk21"><path d="M545,477.25 C545,499.18 545,552.88 545,587.21" fill="none" id="BinaryModelInterface-backto-BinaryModel" style="stroke:#181818;stroke-width:1;"/><path d="M536.5428,470.3282 A9,9 0 0 0 553.4572 470.3282" fill="none" style="stroke:#181818;stroke-width:1.5;"/><text fill="#000000" font-family="sans-serif" font-size="13" lengthAdjust="spacing" textLength="92.8154" x="546" y="532.6569">&#171;implements&#187;</text></g><!--reverse link TemplateContextInterface to TemplateContext--><g class="link" data-entity-1="ent0015" data-entity-2="ent0023" data-source-line="22" id="lnk24"><path d="M762,477.25 C762,499.18 762,552.88 762,587.21" fill="none" id="TemplateContextInterface-backto-TemplateContext" style="stroke:#181818;stroke-width:1;"/><path d="M753.5428,470.3282 A9,9 0 0 0 770.4572 470.3282" fill="none" style="stroke:#181818;stroke-width:1.5;"/><text fill="#000000" font-family="sans-serif" font-size="13" lengthAdjust="spacing" textLength="92.8154" x="763" y="532.6569">&#171;implements&#187;</text></g><!--reverse link CompilerInterface to Compiler--><g class="link" data-entity-1="ent0017" data-entity-2="ent0026" data-source-line="26" id="lnk27"><path d="M967,477.25 C967,499.18 967,552.88 967,587.21" fill="none" id="CompilerInterface-backto-Compiler" style="stroke:#181818;stroke-width:1;"/><path d="M958.5428,470.3282 A9,9 0 0 0 975.4572 470.3282" fill="none" style="stroke:#181818;stroke-width:1.5;"/><text fill="#000000" font-family="sans-serif" font-size="13" lengthAdjust="spacing" textLength="92.8154" x="968" y="532.6569">&#171;implements&#187;</text></g><?plantuml-src bP313e8m38RlF4Kz6G_u08Pma9C74nEz4GuDLBEmZMKRHc9yTs5eG42CjwRj__NllrmeZHU1mB4gIWl4SyzJcEPu8H389DmzW7XVLmciro4SK1kAEDj9I_gCANsEjqoYhlP5Hln8-ifIwY-EnB3oVOZVxGHW0q70XE8aI5eJXjwZisDQe76MPWwrqF52CgR3zDxWauxS04f3FwGdgc-WfQYeXJVxhpmgX6ASzAIkbuTebCCmlgUGp8QhIMQa7UshVKSSJEUfwUiLnnt_vO3lzYJf2G00?></g></svg>
