<?plantuml 1.2026.2?><svg xmlns="http://www.w3.org/2000/svg" xmlns:xlink="http://www.w3.org/1999/xlink" contentStyleType="text/css" data-diagram-type="ACTIVITY" height="1228px" preserveAspectRatio="none" style="width:1031px;height:1228px;background:#FFFFFF;" version="1.1" viewBox="0 0 1031 1228" width="1031px" zoomAndPan="magnify"><title>compiler embed injection</title><defs/><g><rect fill="#FFFFCC" height="26.6406" rx="2.5" ry="2.5" style="stroke:#FFDD88;stroke-width:3;" width="1020.7329" x="5" y="5"/><text fill="#000000" font-family="monospace" font-size="10" lengthAdjust="spacing" textLength="565.9277" x="10" y="20">This&#160;syntax&#160;is&#160;deprecated,&#160;you&#160;must&#160;add&#160;&lt;&lt;#SpringGreen&gt;&gt;&#160;at&#160;the&#160;end&#160;of&#160;the&#160;line,&#160;after&#160;the&#160;';'</text><g class="title" data-source-line="1"><text fill="#000000" font-family="sans-serif" font-size="14" font-weight="bold" lengthAdjust="spacing" textLength="200.3271" x="406.7029" y="69.6357">compiler embed injection</text></g><ellipse cx="325.4713" cy="93.9375" fill="#222222" rx="10" ry="10" style="stroke:#222222;stroke-width:1;"/><rect fill="#F1F1F1" height="33.9688" rx="12.5" ry="12.5" style="stroke:#181818;stroke-width:0.5;" width="72.2305" x="289.3561" y="123.9375"/><text fill="#000000" font-family="sans-serif" font-size="12" lengthAdjust="spacing" textLength="52.2305" x="299.3561" y="145.0762">compiler</text><rect fill="#F1F1F1" height="33.9688" rx="12.5" ry="12.5" style="stroke:#181818;stroke-width:0.5;" width="217.9883" x="216.4772" y="177.9063"/><text fill="#000000" font-family="sans-serif" font-size="12" lengthAdjust="spacing" textLength="197.9883" x="226.4772" y="199.0449">Compiler::Embed::inject fromFile</text><rect fill="#F1F1F1" height="33.9688" rx="12.5" ry="12.5" style="stroke:#181818;stroke-width:0.5;" width="212.9434" x="218.9996" y="231.875"/><text fill="#000000" font-family="sans-serif" font-size="12" lengthAdjust="spacing" textLength="192.9434" x="228.9996" y="253.0137">Compiler::Embed::filter fromFile</text><rect fill="#00FF7F" height="184.5859" style="stroke:#000000;stroke-width:1.5;" width="377.1157" x="179.0905" y="331.5542"/><path d="M368.4791,331.5542 L368.4791,340.8511 L358.4791,350.8511 L179.0905,350.8511" fill="none" style="stroke:#000000;stroke-width:1.5;"/><text fill="#000000" font-family="sans-serif" font-size="14" lengthAdjust="spacing" textLength="179.3887" x="182.0905" y="345.5493">Compiler::Embed::embed</text><rect fill="#F1F1F1" height="75.875" rx="12.5" ry="12.5" style="stroke:#181818;stroke-width:0.5;" width="272.7617" x="189.0905" y="367.8511"/><text fill="#000000" font-family="sans-serif" font-size="12" lengthAdjust="spacing" textLength="252.7617" x="199.0905" y="388.9897">Compiler::Embed::parse $embedDirective</text><text fill="#000000" font-family="sans-serif" font-size="12" lengthAdjust="spacing" textLength="7.6289" x="199.0905" y="402.9585">&#160;&#160;</text><text fill="#000000" font-family="sans-serif" font-size="12" lengthAdjust="spacing" text-decoration="wavy underline" textLength="230.1211" x="206.7194" y="402.9585">uses Compiler::Embed::assertAsName</text><text fill="#000000" font-family="sans-serif" font-size="12" lengthAdjust="spacing" textLength="7.6289" x="199.0905" y="416.9272">&#160;&#160;</text><text fill="#000000" font-family="sans-serif" font-size="12" lengthAdjust="spacing" text-decoration="wavy underline" textLength="236.0918" x="206.7194" y="416.9272">uses Compiler::Embed::assertResource</text><text fill="#000000" font-family="sans-serif" font-size="12" lengthAdjust="spacing" textLength="3.8145" x="199.0905" y="430.896">&#160;</text><polygon fill="#AAAAAA" points="236.8214,468.4297,414.1212,468.4297,426.1212,480.4297,414.1212,492.4297,236.8214,492.4297,224.8214,480.4297,236.8214,468.4297" style="stroke:#181818;stroke-width:0.5;"/><text fill="#008000" font-family="sans-serif" font-size="11" lengthAdjust="spacing" textLength="77.8647" x="329.4713" y="502.6401">valid directive</text><text fill="#000000" font-family="sans-serif" font-size="11" lengthAdjust="spacing" textLength="177.2998" x="236.8214" y="484.2378">embed directive can be parsed?</text><text fill="#FF0000" font-family="sans-serif" font-size="11" lengthAdjust="spacing" textLength="78.085" x="426.1212" y="465.0308">invalid embed</text><text fill="#FF0000" font-family="sans-serif" font-size="11" lengthAdjust="spacing" textLength="48.0229" x="426.1212" y="477.8354">directive</text><ellipse cx="524.2062" cy="480.4297" fill="none" rx="10" ry="10" style="stroke:#FF0000;stroke-width:1.5;"/><line style="stroke:#FF0000;stroke-width:2.5;" x1="518.019" x2="530.3934" y1="474.2425" y2="486.6169"/><line style="stroke:#FF0000;stroke-width:2.5;" x1="530.3934" x2="518.019" y1="474.2425" y2="486.6169"/><polygon fill="#AAAAAA" points="239.9608,536.1401,410.9818,536.1401,422.9818,548.1401,410.9818,560.1401,239.9608,560.1401,227.9608,548.1401,239.9608,536.1401" style="stroke:#181818;stroke-width:0.5;"/><text fill="#000000" font-family="sans-serif" font-size="11" lengthAdjust="spacing" textLength="171.021" x="239.9608" y="551.9482">embed name already injected?</text><text fill="#000000" font-family="sans-serif" font-size="11" lengthAdjust="spacing" textLength="19.0083" x="208.9525" y="545.5459">yes</text><text fill="#008000" font-family="sans-serif" font-size="11" lengthAdjust="spacing" textLength="177.7349" x="422.9818" y="545.5459">embed resource can be injected</text><rect fill="#F1F1F1" height="33.9688" rx="12.5" ry="12.5" style="stroke:#181818;stroke-width:0.5;" width="90.5762" x="38" y="570.1401"/><text fill="#000000" font-family="sans-serif" font-size="12" lengthAdjust="spacing" textLength="70.5762" x="48" y="591.2788">display skip</text><rect fill="#F1F1F1" height="33.9688" rx="12.5" ry="12.5" style="stroke:#181818;stroke-width:0.5;" width="114.6875" x="510.3108" y="618.5425"/><text fill="#000000" font-family="sans-serif" font-size="12" lengthAdjust="spacing" textLength="94.6875" x="520.3108" y="639.6812">display warning</text><polygon fill="#AAAAAA" points="470.8459,570.1401,664.4631,570.1401,676.4631,582.1401,664.4631,594.1401,470.8459,594.1401,458.8459,582.1401,470.8459,570.1401" style="stroke:#181818;stroke-width:0.5;"/><text fill="#000000" font-family="sans-serif" font-size="11" lengthAdjust="spacing" textLength="19.0083" x="571.6545" y="604.3506">yes</text><text fill="#000000" font-family="sans-serif" font-size="11" lengthAdjust="spacing" textLength="193.6172" x="470.8459" y="585.9482">embed resources already injected?</text><polygon fill="#AAAAAA" points="567.6545,672.5112,579.6545,684.5112,567.6545,696.5112,555.6545,684.5112,567.6545,672.5112" style="stroke:#181818;stroke-width:0.5;"/><rect fill="#D3D3D3" height="309.4219" style="stroke:#000000;stroke-width:1.5;" width="828.1567" x="148.5762" y="706.5112"/><path d="M337.9648,706.5112 L337.9648,715.8081 L327.9648,725.8081 L148.5762,725.8081" fill="none" style="stroke:#000000;stroke-width:1.5;"/><text fill="#000000" font-family="sans-serif" font-size="14" lengthAdjust="spacing" textLength="179.3887" x="151.5762" y="720.5063">Compiler::Embed::embed</text><rect fill="#F1F1F1" height="33.9688" rx="12.5" ry="12.5" style="stroke:#181818;stroke-width:0.5;" width="311.2695" x="412.0198" y="742.8081"/><text fill="#000000" font-family="sans-serif" font-size="12" lengthAdjust="spacing" text-decoration="underline" textLength="153.7617" x="422.0198" y="763.9468">Compiler::Embed::embed</text><text fill="#000000" font-family="sans-serif" font-size="12" lengthAdjust="spacing" textLength="3.8145" x="575.7815" y="763.9468">&#160;</text><text fill="#000000" font-family="sans-serif" font-size="12" font-weight="bold" lengthAdjust="spacing" textLength="67.5059" x="579.5959" y="763.9468">$resource</text><text fill="#000000" font-family="sans-serif" font-size="12" lengthAdjust="spacing" textLength="3.8145" x="647.1018" y="763.9468">&#160;</text><text fill="#000000" font-family="sans-serif" font-size="12" font-weight="bold" lengthAdjust="spacing" textLength="62.373" x="650.9163" y="763.9468">$asName</text><polygon fill="#AAAAAA" points="526.6704,796.7769,608.6387,796.7769,620.6387,808.7769,608.6387,820.7769,526.6704,820.7769,514.6704,808.7769,526.6704,796.7769" style="stroke:#181818;stroke-width:0.5;"/><text fill="#000000" font-family="sans-serif" font-size="11" lengthAdjust="spacing" textLength="81.9683" x="526.6704" y="812.585">resource type?</text><rect fill="#F1F1F1" height="33.9688" rx="12.5" ry="12.5" style="stroke:#181818;stroke-width:0.5;" width="194.7148" x="158.5762" y="869.1909"/><text fill="#000000" font-family="sans-serif" font-size="12" lengthAdjust="spacing" textLength="174.7148" x="168.5762" y="890.3296">Compiler::Embed::embedFile</text><rect fill="#F1F1F1" height="33.9688" rx="12.5" ry="12.5" style="stroke:#181818;stroke-width:0.5;" width="191.2695" x="373.7573" y="869.1909"/><text fill="#000000" font-family="sans-serif" font-size="12" lengthAdjust="spacing" textLength="171.2695" x="383.7573" y="890.3296">Compiler::Embed::embedDir</text><rect fill="#F1F1F1" height="33.9688" rx="12.5" ry="12.5" style="stroke:#181818;stroke-width:0.5;" width="292.7598" x="619.915" y="881.9956"/><text fill="#000000" font-family="sans-serif" font-size="12" lengthAdjust="spacing" textLength="272.7598" x="629.915" y="903.1343">Compiler::Embed::embedFrameworkFunction</text><rect fill="#F1F1F1" height="33.9688" rx="12.5" ry="12.5" style="stroke:#181818;stroke-width:0.5;" width="89.8965" x="721.3467" y="935.9644"/><text fill="#000000" font-family="sans-serif" font-size="12" lengthAdjust="spacing" textLength="69.8965" x="731.3467" y="957.103">bin/compile</text><ellipse cx="932.6748" cy="879.1909" fill="none" rx="10" ry="10" style="stroke:#FF0000;stroke-width:1.5;"/><line style="stroke:#FF0000;stroke-width:2.5;" x1="926.4876" x2="938.862" y1="873.0037" y2="885.3781"/><line style="stroke:#FF0000;stroke-width:2.5;" x1="938.862" x2="926.4876" y1="873.0037" y2="885.3781"/><polygon fill="#AAAAAA" points="567.6545,979.9331,567.6545,979.9331,579.6545,991.9331,567.6545,1003.9331,567.6545,1003.9331,555.6545,991.9331,567.6545,979.9331" style="stroke:#181818;stroke-width:0.5;"/><polygon fill="#AAAAAA" points="473.6255,1040.6367,661.6836,1040.6367,673.6836,1052.6367,661.6836,1064.6367,473.6255,1064.6367,461.6255,1052.6367,473.6255,1040.6367" style="stroke:#181818;stroke-width:0.5;"/><text fill="#000000" font-family="sans-serif" font-size="11" lengthAdjust="spacing" textLength="188.0581" x="473.6255" y="1056.4448">embed resource injection failure ?</text><text fill="#FF0000" font-family="sans-serif" font-size="11" lengthAdjust="spacing" textLength="69.6201" x="673.6836" y="1037.2378">display error</text><text fill="#FF0000" font-family="sans-serif" font-size="11" lengthAdjust="spacing" textLength="68.7554" x="673.6836" y="1050.0425">and return 2</text><ellipse cx="763.3037" cy="1052.6367" fill="none" rx="10" ry="10" style="stroke:#FF0000;stroke-width:1.5;"/><line style="stroke:#FF0000;stroke-width:2.5;" x1="757.1165" x2="769.4909" y1="1046.4495" y2="1058.8239"/><line style="stroke:#FF0000;stroke-width:2.5;" x1="769.4909" x2="757.1165" y1="1046.4495" y2="1058.8239"/><polygon fill="#AAAAAA" points="325.4713,1074.6367,337.4713,1086.6367,325.4713,1098.6367,313.4713,1086.6367,325.4713,1074.6367" style="stroke:#181818;stroke-width:0.5;"/><polygon fill="#AAAAAA" points="278.6891,285.8438,372.2535,285.8438,384.2535,297.8438,372.2535,309.8438,278.6891,309.8438,266.6891,297.8438,278.6891,285.8438" style="stroke:#181818;stroke-width:0.5;"/><text fill="#008000" font-family="sans-serif" font-size="11" lengthAdjust="spacing" textLength="73.2402" x="329.4713" y="320.0542">embed found</text><text fill="#000000" font-family="sans-serif" font-size="11" lengthAdjust="spacing" textLength="93.5645" x="278.6891" y="301.6519">embedDirective?</text><text fill="#000000" font-family="sans-serif" font-size="11" lengthAdjust="spacing" textLength="199.7134" x="66.9757" y="295.2495">no more embed directive to process</text><rect fill="#F1F1F1" height="33.9688" rx="12.5" ry="12.5" style="stroke:#181818;stroke-width:0.5;" width="99.7109" x="275.6158" y="1141.731"/><text fill="#000000" font-family="sans-serif" font-size="12" lengthAdjust="spacing" textLength="79.7109" x="285.6158" y="1162.8696">Output result</text><ellipse cx="325.4713" cy="1206.6997" fill="none" rx="11" ry="11" style="stroke:#222222;stroke-width:1;"/><ellipse cx="325.4713" cy="1206.6997" fill="#222222" rx="6" ry="6" style="stroke:#222222;stroke-width:1;"/><line style="stroke:#181818;stroke-width:1;" x1="325.4713" x2="325.4713" y1="103.9375" y2="123.9375"/><polygon fill="#181818" points="321.4713,113.9375,325.4713,123.9375,329.4713,113.9375,325.4713,117.9375" style="stroke:#181818;stroke-width:1;"/><line style="stroke:#181818;stroke-width:1;" x1="325.4713" x2="325.4713" y1="157.9063" y2="177.9063"/><polygon fill="#181818" points="321.4713,167.9063,325.4713,177.9063,329.4713,167.9063,325.4713,171.9063" style="stroke:#181818;stroke-width:1;"/><line style="stroke:#181818;stroke-width:1;" x1="325.4713" x2="325.4713" y1="211.875" y2="231.875"/><polygon fill="#181818" points="321.4713,221.875,325.4713,231.875,329.4713,221.875,325.4713,225.875" style="stroke:#181818;stroke-width:1;"/><line style="stroke:#181818;stroke-width:1;" x1="325.4713" x2="325.4713" y1="492.4297" y2="536.1401"/><polygon fill="#181818" points="321.4713,526.1401,325.4713,536.1401,329.4713,526.1401,325.4713,530.1401" style="stroke:#181818;stroke-width:1;"/><line style="stroke:#FF0000;stroke-width:1;" x1="426.1212" x2="514.2062" y1="480.4297" y2="480.4297"/><polygon fill="#FF0000" points="504.2062,476.4297,514.2062,480.4297,504.2062,484.4297,508.2062,480.4297" style="stroke:#FF0000;stroke-width:1;"/><line style="stroke:#181818;stroke-width:1;" x1="325.4713" x2="325.4713" y1="443.7261" y2="468.4297"/><polygon fill="#181818" points="321.4713,458.4297,325.4713,468.4297,329.4713,458.4297,325.4713,462.4297" style="stroke:#181818;stroke-width:1;"/><line style="stroke:#181818;stroke-width:1;" x1="567.6545" x2="567.6545" y1="594.1401" y2="618.5425"/><polygon fill="#181818" points="563.6545,608.5425,567.6545,618.5425,571.6545,608.5425,567.6545,612.5425" style="stroke:#181818;stroke-width:1;"/><line style="stroke:#181818;stroke-width:1;" x1="676.4631" x2="688.4631" y1="582.1401" y2="582.1401"/><polygon fill="#181818" points="684.4631,625.5269,688.4631,635.5269,692.4631,625.5269,688.4631,629.5269" style="stroke:#181818;stroke-width:1;"/><line style="stroke:#181818;stroke-width:1;" x1="688.4631" x2="688.4631" y1="582.1401" y2="684.5112"/><line style="stroke:#181818;stroke-width:1;" x1="688.4631" x2="579.6545" y1="684.5112" y2="684.5112"/><polygon fill="#181818" points="589.6545,680.5112,579.6545,684.5112,589.6545,688.5112,585.6545,684.5112" style="stroke:#181818;stroke-width:1;"/><line style="stroke:#181818;stroke-width:1;" x1="567.6545" x2="567.6545" y1="652.5112" y2="672.5112"/><polygon fill="#181818" points="563.6545,662.5112,567.6545,672.5112,571.6545,662.5112,567.6545,666.5112" style="stroke:#181818;stroke-width:1;"/><line style="stroke:#181818;stroke-width:1;" x1="766.2949" x2="766.2949" y1="915.9644" y2="935.9644"/><polygon fill="#181818" points="762.2949,925.9644,766.2949,935.9644,770.2949,925.9644,766.2949,929.9644" style="stroke:#181818;stroke-width:1;"/><line style="stroke:#181818;stroke-width:1;" x1="514.6704" x2="255.9336" y1="808.7769" y2="808.7769"/><line style="stroke:#181818;stroke-width:1;" x1="255.9336" x2="255.9336" y1="808.7769" y2="869.1909"/><polygon fill="#181818" points="251.9336,859.1909,255.9336,869.1909,259.9336,859.1909,255.9336,863.1909" style="stroke:#181818;stroke-width:1;"/><text fill="#000000" font-family="sans-serif" font-size="11" lengthAdjust="spacing" textLength="90.8306" x="259.4302" y="842.792">resource is a file</text><line style="stroke:#181818;stroke-width:1;" x1="620.6387" x2="932.6748" y1="808.7769" y2="808.7769"/><line style="stroke:#181818;stroke-width:1;" x1="932.6748" x2="932.6748" y1="808.7769" y2="869.1909"/><polygon fill="#181818" points="928.6748,859.1909,932.6748,869.1909,936.6748,859.1909,932.6748,863.1909" style="stroke:#181818;stroke-width:1;"/><text fill="#000000" font-family="sans-serif" font-size="11" lengthAdjust="spacing" textLength="3.4966" x="932.6748" y="842.792">&#160;</text><text fill="#FF0000" font-family="sans-serif" font-size="11" lengthAdjust="spacing" textLength="27.0649" x="936.1714" y="842.792">error</text><line style="stroke:#181818;stroke-width:1;" x1="469.3921" x2="469.3921" y1="808.7769" y2="869.1909"/><polygon fill="#181818" points="465.3921,859.1909,469.3921,869.1909,473.3921,859.1909,469.3921,863.1909" style="stroke:#181818;stroke-width:1;"/><text fill="#000000" font-family="sans-serif" font-size="11" lengthAdjust="spacing" textLength="123.5298" x="472.8887" y="837.792">resource is a directory</text><line style="stroke:#181818;stroke-width:1;" x1="766.2949" x2="766.2949" y1="808.7769" y2="881.9956"/><polygon fill="#181818" points="762.2949,871.9956,766.2949,881.9956,770.2949,871.9956,766.2949,875.9956" style="stroke:#181818;stroke-width:1;"/><text fill="#000000" font-family="sans-serif" font-size="11" lengthAdjust="spacing" textLength="100.5039" x="769.7915" y="837.792">resource is a bash</text><text fill="#000000" font-family="sans-serif" font-size="11" lengthAdjust="spacing" textLength="107.6689" x="766.2949" y="850.5967">framework function</text><line style="stroke:#181818;stroke-width:1;" x1="255.9336" x2="255.9336" y1="903.1597" y2="991.9331"/><line style="stroke:#181818;stroke-width:1;" x1="255.9336" x2="555.6545" y1="991.9331" y2="991.9331"/><polygon fill="#181818" points="545.6545,987.9331,555.6545,991.9331,545.6545,995.9331,549.6545,991.9331" style="stroke:#181818;stroke-width:1;"/><line style="stroke:#181818;stroke-width:1;" x1="766.2949" x2="766.2949" y1="969.9331" y2="991.9331"/><line style="stroke:#181818;stroke-width:1;" x1="766.2949" x2="579.6545" y1="991.9331" y2="991.9331"/><polygon fill="#181818" points="589.6545,987.9331,579.6545,991.9331,589.6545,995.9331,585.6545,991.9331" style="stroke:#181818;stroke-width:1;"/><line style="stroke:#181818;stroke-width:1;" x1="469.3921" x2="469.3921" y1="903.1597" y2="991.9331"/><polygon fill="#181818" points="465.3921,981.9331,469.3921,991.9331,473.3921,981.9331,469.3921,985.9331" style="stroke:#181818;stroke-width:1;"/><line style="stroke:#181818;stroke-width:1;" x1="567.6545" x2="567.6545" y1="776.7769" y2="796.7769"/><polygon fill="#181818" points="563.6545,786.7769,567.6545,796.7769,571.6545,786.7769,567.6545,790.7769" style="stroke:#181818;stroke-width:1;"/><line style="stroke:#181818;stroke-width:1;" x1="567.6545" x2="567.6545" y1="696.5112" y2="742.8081"/><polygon fill="#181818" points="563.6545,732.8081,567.6545,742.8081,571.6545,732.8081,567.6545,736.8081" style="stroke:#181818;stroke-width:1;"/><line style="stroke:#181818;stroke-width:1;" x1="567.6545" x2="567.6545" y1="1064.6367" y2="1086.6367"/><line style="stroke:#181818;stroke-width:1;" x1="567.6545" x2="337.4713" y1="1086.6367" y2="1086.6367"/><polygon fill="#181818" points="347.4713,1082.6367,337.4713,1086.6367,347.4713,1090.6367,343.4713,1086.6367" style="stroke:#181818;stroke-width:1;"/><line style="stroke:#FF0000;stroke-width:1;" x1="673.6836" x2="753.3037" y1="1052.6367" y2="1052.6367"/><polygon fill="#FF0000" points="743.3037,1048.6367,753.3037,1052.6367,743.3037,1056.6367,747.3037,1052.6367" style="stroke:#FF0000;stroke-width:1;"/><line style="stroke:#181818;stroke-width:1;" x1="567.6545" x2="567.6545" y1="1003.9331" y2="1040.6367"/><polygon fill="#181818" points="563.6545,1030.6367,567.6545,1040.6367,571.6545,1030.6367,567.6545,1034.6367" style="stroke:#181818;stroke-width:1;"/><line style="stroke:#181818;stroke-width:1;" x1="227.9608" x2="83.2881" y1="548.1401" y2="548.1401"/><line style="stroke:#181818;stroke-width:1;" x1="83.2881" x2="83.2881" y1="548.1401" y2="570.1401"/><polygon fill="#181818" points="79.2881,560.1401,83.2881,570.1401,87.2881,560.1401,83.2881,564.1401" style="stroke:#181818;stroke-width:1;"/><line style="stroke:#181818;stroke-width:1;" x1="422.9818" x2="567.6545" y1="548.1401" y2="548.1401"/><line style="stroke:#181818;stroke-width:1;" x1="567.6545" x2="567.6545" y1="548.1401" y2="570.1401"/><polygon fill="#181818" points="563.6545,560.1401,567.6545,570.1401,571.6545,560.1401,567.6545,564.1401" style="stroke:#181818;stroke-width:1;"/><line style="stroke:#181818;stroke-width:1;" x1="83.2881" x2="83.2881" y1="604.1089" y2="1086.6367"/><line style="stroke:#181818;stroke-width:1;" x1="83.2881" x2="313.4713" y1="1086.6367" y2="1086.6367"/><polygon fill="#181818" points="303.4713,1082.6367,313.4713,1086.6367,303.4713,1090.6367,307.4713,1086.6367" style="stroke:#181818;stroke-width:1;"/><line style="stroke:#008000;stroke-width:1;" x1="325.4713" x2="325.4713" y1="309.8438" y2="367.8511"/><polygon fill="#008000" points="321.4713,357.8511,325.4713,367.8511,329.4713,357.8511,325.4713,361.8511" style="stroke:#008000;stroke-width:1;"/><line style="stroke:#008000;stroke-width:1;" x1="325.4713" x2="325.4713" y1="1098.6367" y2="1109.731"/><line style="stroke:#008000;stroke-width:1;" x1="325.4713" x2="990.7329" y1="1109.731" y2="1109.731"/><polygon fill="#008000" points="986.7329,752.9448,990.7329,742.9448,994.7329,752.9448,990.7329,748.9448" style="stroke:#008000;stroke-width:1;"/><line style="stroke:#008000;stroke-width:1;" x1="990.7329" x2="990.7329" y1="297.8438" y2="1109.731"/><line style="stroke:#008000;stroke-width:1;" x1="990.7329" x2="384.2535" y1="297.8438" y2="297.8438"/><polygon fill="#008000" points="394.2535,293.8438,384.2535,297.8438,394.2535,301.8438,390.2535,297.8438" style="stroke:#008000;stroke-width:1;"/><text fill="#008000" font-family="sans-serif" font-size="11" lengthAdjust="spacing" textLength="163.8022" x="325.4713" y="1119.9414">process next embed directive</text><line style="stroke:#181818;stroke-width:1;" x1="266.6891" x2="24" y1="297.8438" y2="297.8438"/><polygon fill="#181818" points="20,745.3472,24,755.3472,28,745.3472,24,749.3472" style="stroke:#181818;stroke-width:1;"/><line style="stroke:#181818;stroke-width:1;" x1="24" x2="24" y1="297.8438" y2="1126.731"/><line style="stroke:#181818;stroke-width:1;" x1="24" x2="325.4713" y1="1126.731" y2="1126.731"/><line style="stroke:#181818;stroke-width:1;" x1="325.4713" x2="325.4713" y1="1126.731" y2="1141.731"/><polygon fill="#181818" points="321.4713,1131.731,325.4713,1141.731,329.4713,1131.731,325.4713,1135.731" style="stroke:#181818;stroke-width:1;"/><line style="stroke:#181818;stroke-width:1;" x1="325.4713" x2="325.4713" y1="265.8438" y2="285.8438"/><polygon fill="#181818" points="321.4713,275.8438,325.4713,285.8438,329.4713,275.8438,325.4713,279.8438" style="stroke:#181818;stroke-width:1;"/><line style="stroke:#181818;stroke-width:1;" x1="325.4713" x2="325.4713" y1="1175.6997" y2="1195.6997"/><polygon fill="#181818" points="321.4713,1185.6997,325.4713,1195.6997,329.4713,1185.6997,325.4713,1189.6997" style="stroke:#181818;stroke-width:1;"/><?plantuml-src bLLTJzim57tFhxXIaTPMWgoi1PfE80Q35xH9OszZgfp4QGo97TbEkmZHtxuRno4VVFUXIPnxppq-lkT6CvrG24IQiOHAeAbFGs3ybWQQ2UweEyOp8aaAzmx09uYrpfJdkYkcuzpVmpmtImZNUPeqDtuYV7SwdqncOHGSXjF9x61-CA4pVpedHvFWyzoV7av3GWxdH_jVN2K3brFjAf7BW4P2hcW3fNIHKFT2YlIwPl9RN9UBUxTaJGPNa-aCYH5aksQwE6Sa5JpyHeAxbHGv3yz48YGCJisl5VZzyPMaeVFWA4saTXol5cBXE8FhJ3A-kfIKSk_ChdlUzr8XpwiaWWYPNU2BD-CZbcZKjudVn7Y1eH7ydCbIxpKz6G5JCFmQbDoyLGbrN1r9LEvcX3lO_JCmwtztZ_495T6iF2buKh7AQxCoPmZmEb54L1HskhnC7i1scokgdfOYIb6fJzKFajBjzbt1lsXrtZPyOVvPP0M1iAuC0U7WKp2qmkVqMPE4jH96e6FABOUkM00qmRtLwNZonunNwQRg3M-zQG0RB5olaH2BXuwziiXvMkt1STexugWDa4HI4XRMO6O_9LiO5bHLTRoGAUp-0j1vMQbAXtAx8wHLi5QenXprfApZr3kgj-flYEJO9OlU7jzkk2ksYlMbH8XxYzbfkENo-SJb4iRZdPhiU5m-4TDHu_720gaDqq4CmyUjwo93pzYt0IcLQdJ1JY4GbIwh8zxgVKEaikSha5Ld25by31VDz2giJrHymoESS7GZv1r4EJSp-8Fiw_mBcxvuFjjdtBN3hiUgvG4g9Ox8fdxV0eq9p5rrFERvuOKcR3uj416Mv9B2IT-nLGdeUB7gISEdurB2IsoTImxxYxunqJalpG7JpqxJsAq0w7WjamAjeu3JVnfwimc7FkRRGSu5f0AtqvzVMe356E7tvMUkiroNSkI9ndobHVOV?></g></svg>
